<svg xmlns="http://www.w3.org/2000/svg" xmlns:xlink="http://www.w3.org/1999/xlink" viewBox="0 0 634.46 429.14"><defs><style>.cls-1{fill:none;}.cls-2{fill:#f5f6f6;}.cls-3{fill:#e0e1e0;}.cls-4{fill:#ebebeb;}.cls-5,.cls-9{fill:#273339;}.cls-6{fill:#fafbfc;}.cls-10,.cls-7{fill:#373c54;}.cls-11,.cls-8{fill:#e8515c;}.cls-10,.cls-8,.cls-9{fill-rule:evenodd;}.cls-12{opacity:0.62;}.cls-13{clip-path:url(#clip-path);}.cls-14{clip-path:url(#clip-path-2);}.cls-15{clip-path:url(#clip-path-3);}.cls-16{clip-path:url(#clip-path-4);}.cls-17{clip-path:url(#clip-path-5);}.cls-18{clip-path:url(#clip-path-6);}.cls-19{clip-path:url(#clip-path-7);}.cls-20{fill:#465b65;}.cls-21{opacity:0.8;}.cls-22{clip-path:url(#clip-path-8);}.cls-23{fill:#fff;}.cls-24{fill:#2aaae2;}.cls-25{fill:#1c3b5f;}.cls-26{opacity:0.3;}.cls-27{clip-path:url(#clip-path-9);}.cls-28{fill:#010101;}.cls-29{opacity:0.5;}.cls-30{clip-path:url(#clip-path-10);}.cls-31{fill:#1d1f30;}.cls-32{clip-path:url(#clip-path-11);}.cls-33{fill:#b66a56;}.cls-34{fill:#8f3a23;}.cls-35{clip-path:url(#clip-path-12);}.cls-36{fill:#333559;}</style><clipPath id="clip-path"><rect class="cls-1" x="171.43" y="194.71" width="275.49" height="45.13"/></clipPath><clipPath id="clip-path-2"><rect class="cls-1" x="171.43" y="194.71" width="275.49" height="0.23"/></clipPath><clipPath id="clip-path-3"><rect class="cls-1" x="171.43" y="203.69" width="275.49" height="0.23"/></clipPath><clipPath id="clip-path-4"><rect class="cls-1" x="171.43" y="212.67" width="275.49" height="0.23"/></clipPath><clipPath id="clip-path-5"><rect class="cls-1" x="171.43" y="221.65" width="275.49" height="0.23"/></clipPath><clipPath id="clip-path-6"><rect class="cls-1" x="171.43" y="230.63" width="275.49" height="0.23"/></clipPath><clipPath id="clip-path-7"><rect class="cls-1" x="171.43" y="239.61" width="275.49" height="0.23"/></clipPath><clipPath id="clip-path-8"><rect class="cls-1" x="140.59" y="50.83" width="347.37" height="58.71"/></clipPath><clipPath id="clip-path-9"><rect class="cls-1" x="484.45" y="346.01" width="34" height="13.08"/></clipPath><clipPath id="clip-path-10"><rect class="cls-1" x="445.1" y="289.81" width="100.35" height="83.66"/></clipPath><clipPath id="clip-path-11"><rect class="cls-1" x="502.54" y="403.37" width="46.89" height="19.76"/></clipPath><clipPath id="clip-path-12"><rect class="cls-1" x="467.07" y="317.6" width="6.53" height="43.44"/></clipPath></defs><title>Asset 22</title><g id="Layer_2" data-name="Layer 2"><g id="Layer_1-2" data-name="Layer 1"><rect class="cls-2" x="13.45" y="314.76" width="143.81" height="66.32"/><path class="cls-3" d="M153.83,378H16.74V318.25H153.83Zm-136.2-.89H152.94V319.15H17.63Z"/><rect class="cls-3" x="157.25" y="314.76" width="35.13" height="66.32"/><path class="cls-3" d="M17.19,336.73H153.38a.18.18,0,1,0,0-.36H17.19a.18.18,0,1,0,0,.36"/><path class="cls-3" d="M85.73,336.55a150.3,150.3,0,0,0,0-18,.19.19,0,0,0-.37,0,148.25,148.25,0,0,0,0,18,.14.14,0,1,0,.27,0"/><path class="cls-3" d="M122.39,327.54a1.86,1.86,0,1,1-1.86-1.85,1.86,1.86,0,0,1,1.86,1.85"/><path class="cls-3" d="M50.91,327.54a1.86,1.86,0,1,1-1.85-1.85,1.85,1.85,0,0,1,1.85,1.85"/><path class="cls-3" d="M87.14,348.11a1.86,1.86,0,1,1-1.86-1.86,1.85,1.85,0,0,1,1.86,1.86"/><polygon class="cls-3" points="30.64 381.08 23.24 422.72 27.4 422.72 41.05 381.08 30.64 381.08"/><polygon class="cls-3" points="147.08 381.08 153.27 422.8 149.11 422.8 136.67 381.08 147.08 381.08"/><polygon class="cls-3" points="174.88 381.08 181.9 422.8 177.73 422.8 164.47 381.08 174.88 381.08"/><path class="cls-3" d="M87,366.88A1.86,1.86,0,1,1,85.16,365,1.86,1.86,0,0,1,87,366.88"/><path class="cls-3" d="M17.19,357.27H153.38a.18.18,0,0,0,0-.36H17.19a.18.18,0,1,0,0,.36"/><rect class="cls-3" x="70.35" y="283.52" width="43.48" height="8.85" transform="translate(-1.5 0.48) rotate(-0.3)"/><rect class="cls-2" x="70.58" y="300.95" width="48.46" height="13.75" transform="translate(-1.63 0.51) rotate(-0.3)"/><path class="cls-3" d="M109.74,314.48a49.9,49.9,0,0,1-.24-6.87,50,50,0,0,1,.24-6.88,51.05,51.05,0,0,1,.23,6.88,51,51,0,0,1-.23,6.87"/><path class="cls-3" d="M111.77,314.48a51,51,0,0,1-.23-6.87,51.05,51.05,0,0,1,.23-6.88,50,50,0,0,1,.24,6.88,49.9,49.9,0,0,1-.24,6.87"/><path class="cls-3" d="M77.9,314.48a51,51,0,0,1-.23-6.87,51.05,51.05,0,0,1,.23-6.88,50,50,0,0,1,.24,6.88,49.9,49.9,0,0,1-.24,6.87"/><path class="cls-3" d="M79.94,314.48a51,51,0,0,1-.23-6.87,51.05,51.05,0,0,1,.23-6.88,50,50,0,0,1,.24,6.88,49.9,49.9,0,0,1-.24,6.87"/><path class="cls-3" d="M84.38,307.83c0-.13,4.89-.24,10.92-.24s10.92.11,10.92.24-4.89.24-10.92.24-10.92-.11-10.92-.24"/><rect class="cls-4" x="77.45" y="292.05" width="59.8" height="8.85" transform="translate(-1.57 0.57) rotate(-0.3)"/><path class="cls-3" d="M128.71,299.65a2.87,2.87,0,1,1,2.83-2.86,2.84,2.84,0,0,1-2.83,2.86"/><rect class="cls-3" x="80.91" y="295.9" width="40.03" height="1.77"/><rect class="cls-3" x="582.24" y="69.25" width="8.45" height="42.05" transform="translate(-0.47 3.13) rotate(-0.31)"/><rect class="cls-4" x="508.98" y="69.4" width="21.88" height="23.21" transform="translate(-0.43 2.78) rotate(-0.31)"/><rect class="cls-2" x="530.76" y="69.28" width="21.88" height="23.21" transform="translate(-0.42 2.9) rotate(-0.31)"/><path class="cls-3" d="M509,75.87c14.54.12,29.12,0,43.66-.2a.24.24,0,0,0,0-.47c-14.54-.08-29.12,0-43.66.27a.2.2,0,0,0,0,.4"/><rect class="cls-4" x="495.33" y="92.27" width="39.76" height="18.92" transform="translate(-0.54 2.76) rotate(-0.31)"/><rect class="cls-2" x="534.9" y="92.06" width="39.76" height="18.92" transform="translate(-0.54 2.97) rotate(-0.31)"/><path class="cls-3" d="M495.31,97.64c26.41.3,52.91,0,79.32-.39a.24.24,0,0,0,0-.47c-26.41-.14-52.92-.12-79.32.46a.2.2,0,0,0,0,.4"/><rect class="cls-3" x="480.44" y="111.29" width="154.02" height="6.78"/><rect class="cls-3" x="505.66" y="114.55" width="6.25" height="23.12"/><rect class="cls-3" x="598.99" y="114.55" width="6.25" height="23.12"/><rect class="cls-4" x="590.52" y="53.57" width="8.45" height="57.83" transform="translate(-0.43 3.17) rotate(-0.31)"/><rect class="cls-2" x="599.02" y="64.35" width="13.13" height="46.86" transform="matrix(1, -0.01, 0.01, 1, -0.46, 3.23)"/><path class="cls-3" d="M611.93,73.34a93.81,93.81,0,0,1-13.13,0,98.06,98.06,0,0,1,13.13,0"/><path class="cls-3" d="M611.93,71.38a98.06,98.06,0,0,1-13.13,0,93.81,93.81,0,0,1,13.13,0"/><path class="cls-3" d="M611.93,104.13a93.81,93.81,0,0,1-13.13,0,93.81,93.81,0,0,1,13.13,0"/><path class="cls-3" d="M611.93,102.16a93.81,93.81,0,0,1-13.13,0,93.81,93.81,0,0,1,13.13,0"/><path class="cls-3" d="M605.58,97.86c-.13,0-.23-4.72-.23-10.56s.1-10.56.23-10.56.23,4.73.23,10.56-.1,10.56-.23,10.56"/><rect class="cls-4" x="612.08" y="75.82" width="14.29" height="35.37"/><path class="cls-3" d="M596.9,63.42A2.43,2.43,0,1,1,594.47,61a2.43,2.43,0,0,1,2.43,2.42"/><rect class="cls-3" x="593.72" y="70.1" width="1.5" height="34.4"/><path class="cls-4" d="M613.29,237.38s-9.74-5.26-19,17.76-12.36,36.09-12.36,36.09-2.56,4.88-6,2.15-8.55-10.9-13.79-8.88c-5.45,2.1-6.73,8.5-4.84,17.56s5.28,29.08,5.58,30.89-.49,4.51-3.14,3-18.37-16.14-24.88-8.26,2.89,32.27,3.87,35,.54,3.91-.71,4.71-6.07-4.63-10.71-8.62-10.73-7.79-14.11-2.93-2.9,23.76,17.7,52.66l10.42,12.77,16.39-2.38c34.75-7.25,47.91-20.8,48.74-26.66s-6.23-7.19-12.35-7.42-13.34.48-13.71-.95.13-2.63,2.67-3.94,26-12.84,26.57-23S588.71,346.74,585.77,346s-1.68-3.24-.26-4.34,17.53-13.52,25.07-18.89,10.94-10.95,8.36-16.18c-2.48-5.05-11.77-2.52-16.15-2.85s-2.94-5.64-2.94-5.64,6.59-11.72,15.42-34.9-2.18-26-2.18-26"/><path class="cls-3" d="M541.86,417.84c6.55-17,15.79-40.42,26.1-66.24s19.6-49.2,26.24-66.17c3.31-8.46,6-15.32,7.85-20.09l2.14-5.47.57-1.41c.13-.32.21-.48.21-.48s0,.17-.15.5l-.52,1.43c-.48,1.29-1.16,3.14-2,5.5-1.78,4.78-4.41,11.67-7.69,20.17-6.54,17-15.79,40.41-26.09,66.23S548.87,401,542.23,418"/><path class="cls-3" d="M568.83,296.21a5.36,5.36,0,0,1,.52,1.08c.31.7.72,1.73,1.21,3,1,2.55,2.25,6.12,3.57,10.08s2.44,7.43,3.33,10.16c.4,1.21.75,2.23,1,3.07a4.77,4.77,0,0,1,.32,1.15,5.32,5.32,0,0,1-.53-1.07c-.3-.7-.71-1.73-1.19-3-1-2.56-2.18-6.15-3.5-10.11s-2.49-7.41-3.41-10.13c-.4-1.2-.75-2.22-1-3.07a4.72,4.72,0,0,1-.31-1.15"/><path class="cls-3" d="M580.35,324.92c-.06-.15,7.18-3.08,16.16-6.56s16.31-6.17,16.37-6-7.18,3.08-16.17,6.55-16.31,6.17-16.36,6"/><path class="cls-3" d="M562.74,363.86a4.9,4.9,0,0,1,1.21-.17l3.29-.3c2.78-.24,6.62-.6,10.84-1.14s8-1.15,10.79-1.61l3.26-.55a5,5,0,0,1,1.21-.13,4.78,4.78,0,0,1-1.16.35c-.76.19-1.87.44-3.24.72-2.74.56-6.55,1.24-10.78,1.78s-8.1.84-10.89,1c-1.4.07-2.53.11-3.31.11a5.1,5.1,0,0,1-1.22,0"/><path class="cls-3" d="M546.61,340.19a4.42,4.42,0,0,1,.73.85c.44.58,1.07,1.42,1.83,2.46,1.52,2.08,3.59,5,5.85,8.21s4.29,6.17,5.72,8.31c.72,1.08,1.3,2,1.69,2.56a4.75,4.75,0,0,1,.55,1,4.33,4.33,0,0,1-.73-.86c-.45-.57-1.07-1.41-1.83-2.45-1.53-2.08-3.6-5-5.86-8.21s-4.28-6.17-5.72-8.31c-.72-1.08-1.29-2-1.68-2.56a3.77,3.77,0,0,1-.55-1"/><path class="cls-3" d="M526.7,372.59a7.61,7.61,0,0,1,.92,1.11l2.35,3.13c2,2.67,4.66,6.37,7.59,10.47s5.57,7.85,7.45,10.57l2.21,3.24a7.57,7.57,0,0,1,.75,1.23,6.22,6.22,0,0,1-.93-1.1l-2.35-3.14c-2-2.66-4.65-6.36-7.59-10.47s-5.57-7.84-7.45-10.56c-.88-1.3-1.62-2.39-2.21-3.24a6.78,6.78,0,0,1-.74-1.24"/><path class="cls-3" d="M547.66,401.49a7.8,7.8,0,0,1,1.52-.26l4.16-.51c3.52-.44,8.37-1.06,13.71-1.9s10.16-1.7,13.64-2.35l4.13-.77a10.24,10.24,0,0,1,1.52-.22,7.81,7.81,0,0,1-1.48.44c-1,.24-2.36.57-4.09.94-3.47.76-8.28,1.69-13.63,2.52s-10.22,1.39-13.75,1.73c-1.77.17-3.2.28-4.19.34a8.19,8.19,0,0,1-1.54,0"/><path class="cls-5" d="M626.6,422.63c0,.13-140.28.24-313.28.24S0,422.76,0,422.63s140.25-.25,313.32-.25,313.28.11,313.28.25"/><path class="cls-6" d="M551.66,384.35H96.28a8.68,8.68,0,0,1-8.69-8.68V59.52a8.69,8.69,0,0,1,8.69-8.69H551.66a8.69,8.69,0,0,1,8.69,8.69V375.67a8.68,8.68,0,0,1-8.69,8.68"/><path class="cls-3" d="M544.45,317.11H460.24a6.76,6.76,0,0,1-6.76-6.76v-177a6.76,6.76,0,0,1,6.76-6.76h84.21a6.76,6.76,0,0,1,6.76,6.76v177a6.76,6.76,0,0,1-6.76,6.76M460.24,127.55a5.83,5.83,0,0,0-5.82,5.82v177a5.83,5.83,0,0,0,5.82,5.83h84.21a5.83,5.83,0,0,0,5.82-5.83v-177a5.83,5.83,0,0,0-5.82-5.82Z"/><path class="cls-7" d="M121.67,384.62H97.05A9.65,9.65,0,0,1,87.4,375V60.82a9.65,9.65,0,0,1,9.65-9.64h24.62a9.65,9.65,0,0,1,9.64,9.64V375a9.65,9.65,0,0,1-9.64,9.65"/><path class="cls-6" d="M129,194.91H95.21a2.62,2.62,0,0,0-2.62,2.62v26.61a2.62,2.62,0,0,0,2.62,2.62h36.53a2.62,2.62,0,0,0,2.6-2.89l3.29-29.13Z"/><path class="cls-5" d="M501.23,82.29l.23-.14a2,2,0,0,0,.55-.5,4.43,4.43,0,0,0,.74-2.61,8.41,8.41,0,0,1,.36-2,2.74,2.74,0,0,1,1.55-1.76,2.79,2.79,0,0,1,2.59.33,4,4,0,0,1,1.23,2.5,10.53,10.53,0,0,1,.1,1.24,2.83,2.83,0,0,0,.14,1.08A4.14,4.14,0,0,0,510,82.11l.5.41h-.64c-2.59,0-4.82-.11-6.32-.17l-2.29-.06,2.54-.07c1.56,0,3.63-.15,6.07-.16l-.13.41a4.5,4.5,0,0,1-1.44-1.84,3.2,3.2,0,0,1-.17-1.24,9.26,9.26,0,0,0-.11-1.17,3.46,3.46,0,0,0-1-2.2,2.21,2.21,0,0,0-3.46,1.19,8.83,8.83,0,0,0-.4,1.87,6.39,6.39,0,0,1-.31,1.61,3,3,0,0,1-.63,1.08,1.77,1.77,0,0,1-.64.47.44.44,0,0,1-.19,0h-.09"/><path class="cls-8" d="M506.15,76.56A1.85,1.85,0,1,0,508,74.71a1.84,1.84,0,0,0-1.85,1.85"/><path class="cls-9" d="M504.38,83.46h2.54a1.25,1.25,0,0,1-1.38,1.3,1.07,1.07,0,0,1-1.16-1.3"/><path class="cls-10" d="M535.08,89.92H524.52A4.51,4.51,0,0,1,520,85.41V74.85a4.51,4.51,0,0,1,4.51-4.51h10.56a4.51,4.51,0,0,1,4.51,4.51V85.41a4.51,4.51,0,0,1-4.51,4.51"/><path class="cls-11" d="M311.45,240.47c-8.39,0-12.14-6.61-15.76-13-3-5.28-6.09-10.73-11.15-10.73-5.66,0-8.44,2.13-11.65,4.59-3.5,2.69-7.47,5.72-15.26,5.72-8.54,0-12.09-8-15.84-16.49-2.89-6.53-6.16-13.93-11.07-13.93s-8.18,7.4-11.06,13.92c-3.76,8.49-7.3,16.5-15.84,16.5-8,0-12-4.26-15.52-8-3.21-3.44-6-6.41-11.4-6.41v-.8c5.76,0,8.65,3.09,12,6.67s7.24,7.77,14.94,7.77c8,0,11.46-7.79,15.1-16,3-6.75,6.37-14.4,11.8-14.4s8.82,7.65,11.8,14.4c3.65,8.24,7.09,16,15.11,16,7.52,0,11.37-3,14.77-5.56s6.21-4.76,12.14-4.76c5.53,0,8.74,5.66,11.84,11.13,3.51,6.19,7.15,12.59,15.07,12.59s11.54-6,15.06-11.8c3.24-5.33,6.29-10.37,11.85-10.37,5.74,0,8.63,3.2,12,6.91s7.24,8,15,8c8,0,11.48-8.29,15.12-17.07,3-7.22,6.38-15.41,11.79-15.41s8.71,6.29,11.82,12.37c3.51,6.85,7.13,13.93,15.1,13.93,7.7,0,11.55-4.13,14.94-7.77s6.22-6.67,12-6.67v.8c-5.41,0-8.19,3-11.4,6.41-3.5,3.76-7.47,8-15.52,8-8.46,0-12.19-7.29-15.8-14.35-3-5.87-6.12-12-11.12-12s-8.16,7.93-11.05,14.92c-3.75,9-7.28,17.57-15.86,17.57-8.08,0-12-4.41-15.55-8.3-3.21-3.57-6-6.65-11.37-6.65-5.11,0-8.05,4.85-11.17,10-3.63,6-7.39,12.18-15.74,12.18"/><path class="cls-3" d="M177.92,251.54l.21-.24a.85.85,0,0,0,.72.41c.42,0,.63-.24.63-.74v-2h-1.23v-.31h1.57V251c0,.71-.33,1.06-1,1.06a1.1,1.1,0,0,1-.93-.48"/><path class="cls-3" d="M182.72,250.43V252h-.33v-.39a.93.93,0,0,1-.86.41c-.57,0-.92-.29-.92-.73s.25-.71,1-.71h.8v-.15a.62.62,0,0,0-.71-.67,1.23,1.23,0,0,0-.84.3l-.16-.26a1.65,1.65,0,0,1,1-.34.9.9,0,0,1,1,1m-.34.8v-.41h-.79c-.49,0-.65.19-.65.45s.24.48.64.48a.82.82,0,0,0,.8-.52"/><path class="cls-3" d="M186,250.53V252h-.34v-1.43a.7.7,0,0,0-.76-.8.82.82,0,0,0-.88.91V252h-.34v-2.52H184v.47a1.05,1.05,0,0,1,1-.49,1,1,0,0,1,1,1.08"/><polygon class="cls-3" points="214.49 248.95 214.49 250.26 216.22 250.26 216.22 250.57 214.49 250.57 214.49 251.99 214.13 251.99 214.13 248.64 216.43 248.64 216.43 248.95 214.49 248.95"/><path class="cls-3" d="M219.2,250.84h-2.11a.93.93,0,0,0,1,.87,1,1,0,0,0,.77-.33l.19.22a1.22,1.22,0,0,1-1,.41,1.24,1.24,0,0,1-1.32-1.28,1.21,1.21,0,0,1,1.23-1.28,1.2,1.2,0,0,1,1.22,1.28v.11m-2.11-.26h1.79a.89.89,0,0,0-.9-.84.88.88,0,0,0-.89.84"/><path class="cls-3" d="M222.45,250.73A1.22,1.22,0,0,1,221.2,252a1.1,1.1,0,0,1-1-.52v.5h-.32v-3.55h.34V250a1.11,1.11,0,0,1,1-.5,1.22,1.22,0,0,1,1.25,1.28m-.34,0a.94.94,0,1,0-.94,1,.92.92,0,0,0,.94-1"/><polygon class="cls-3" points="254.97 248.64 254.97 251.99 254.63 251.99 254.63 249.31 253.31 251.56 253.15 251.56 251.83 249.32 251.83 251.99 251.49 251.99 251.49 248.64 251.78 248.64 253.24 251.12 254.68 248.64 254.97 248.64"/><path class="cls-3" d="M257.89,250.43V252h-.32v-.39a.94.94,0,0,1-.87.41c-.57,0-.92-.29-.92-.73s.25-.71,1-.71h.8v-.15c0-.44-.24-.67-.71-.67a1.27,1.27,0,0,0-.84.3l-.15-.26a1.62,1.62,0,0,1,1-.34.89.89,0,0,1,1,1m-.34.8v-.41h-.79c-.48,0-.64.19-.64.45s.23.48.63.48a.8.8,0,0,0,.8-.52"/><path class="cls-3" d="M260.09,249.45v.33H260a.81.81,0,0,0-.85.93V252h-.34v-2.52h.33v.5a.94.94,0,0,1,.94-.52"/><path class="cls-3" d="M289.24,251.09h-1.87l-.4.9h-.37l1.53-3.35h.35L290,252h-.37Zm-.13-.28-.81-1.8-.8,1.8Z"/><path class="cls-3" d="M293.05,250.73a1.22,1.22,0,0,1-1.26,1.28,1.09,1.09,0,0,1-1-.49v1.4h-.34v-3.45h.32v.5a1.12,1.12,0,0,1,1-.52,1.22,1.22,0,0,1,1.26,1.28m-.34,0a.94.94,0,1,0-1.88,0,.94.94,0,1,0,1.88,0"/><path class="cls-3" d="M295,249.45v.33h-.08c-.52,0-.84.33-.84.93V252h-.34v-2.52h.32v.5a1,1,0,0,1,.94-.52"/><polygon class="cls-3" points="329.69 248.64 329.69 251.99 329.35 251.99 329.35 249.31 328.04 251.56 327.87 251.56 326.55 249.32 326.55 251.99 326.21 251.99 326.21 248.64 326.5 248.64 327.96 251.12 329.4 248.64 329.69 248.64"/><path class="cls-3" d="M332.61,250.43V252h-.32v-.39a.94.94,0,0,1-.87.41c-.57,0-.92-.29-.92-.73s.25-.71,1-.71h.8v-.15c0-.44-.25-.67-.72-.67a1.27,1.27,0,0,0-.84.3l-.15-.26a1.65,1.65,0,0,1,1-.34.89.89,0,0,1,1,1m-.33.8v-.41h-.79c-.49,0-.65.19-.65.45s.23.48.64.48a.82.82,0,0,0,.8-.52"/><path class="cls-3" d="M335.61,249.47l-1.26,2.82c-.21.49-.48.65-.84.65a.83.83,0,0,1-.61-.23l.16-.25a.63.63,0,0,0,.46.19c.22,0,.38-.11.52-.42l.11-.25L333,249.47h.36l.95,2.14.94-2.14Z"/><path class="cls-3" d="M361.29,251.54l.21-.24a.83.83,0,0,0,.72.41c.41,0,.62-.24.62-.74v-2h-1.22v-.31h1.57V251c0,.71-.33,1.06-1,1.06a1.08,1.08,0,0,1-.92-.48"/><path class="cls-3" d="M366.45,249.47V252h-.32v-.46a1,1,0,0,1-.91.48,1,1,0,0,1-1.06-1.08v-1.46h.34v1.43a.71.71,0,0,0,.76.81.82.82,0,0,0,.85-.92v-1.32Z"/><path class="cls-3" d="M369.72,250.53V252h-.34v-1.43c0-.53-.27-.8-.75-.8a.82.82,0,0,0-.88.91V252h-.34v-2.52h.32v.47a1.06,1.06,0,0,1,1-.49,1,1,0,0,1,1,1.08"/><path class="cls-3" d="M398.65,251.54l.21-.24a.83.83,0,0,0,.72.41c.41,0,.62-.24.62-.74v-2H399v-.31h1.57V251c0,.71-.33,1.06-1,1.06a1.08,1.08,0,0,1-.92-.48"/><path class="cls-3" d="M403.81,249.47V252h-.32v-.46a1,1,0,0,1-.91.48,1,1,0,0,1-1.06-1.08v-1.46h.34v1.43a.71.71,0,0,0,.76.81.82.82,0,0,0,.85-.92v-1.32Z"/><rect class="cls-3" x="404.77" y="248.44" width="0.34" height="3.55"/><path class="cls-3" d="M437,251.09h-1.87l-.4.9h-.37l1.53-3.35h.35l1.54,3.35h-.38Zm-.13-.28L436,249l-.81,1.8Z"/><path class="cls-3" d="M440.44,249.47V252h-.32v-.46a1,1,0,0,1-.91.48,1,1,0,0,1-1.06-1.08v-1.46h.34v1.43a.71.71,0,0,0,.76.81.82.82,0,0,0,.85-.92v-1.32Z"/><path class="cls-3" d="M443.73,249.47v2.21a1.11,1.11,0,0,1-1.26,1.26,1.74,1.74,0,0,1-1.17-.39l.17-.25a1.52,1.52,0,0,0,1,.34c.64,0,.93-.29.93-.91v-.32a1.13,1.13,0,0,1-1,.48,1.22,1.22,0,1,1,0-2.44,1.13,1.13,0,0,1,1,.51v-.49Zm-.33,1.2a1,1,0,1,0-1,.92.9.9,0,0,0,1-.92"/><path class="cls-3" d="M160.37,250c0-.73.39-1.17.92-1.17s.92.44.92,1.17-.39,1.17-.92,1.17-.92-.44-.92-1.17m1.6,0c0-.61-.28-.95-.68-.95s-.68.34-.68.95.28,1,.68,1,.68-.33.68-1"/><polygon class="cls-3" points="158.29 237.95 158.29 240.25 158.05 240.25 158.05 238.16 157.51 238.16 157.51 237.95 158.29 237.95"/><path class="cls-3" d="M158.84,239.1c0-.73.38-1.17.92-1.17s.92.44.92,1.17-.39,1.17-.92,1.17-.92-.44-.92-1.17m1.59,0c0-.62-.27-1-.67-1s-.68.34-.68,1,.28,1,.68,1,.67-.34.67-1"/><path class="cls-3" d="M159.22,231v.21h-1.61v-.17l1-.94a.75.75,0,0,0,.31-.57c0-.26-.19-.43-.54-.43a.8.8,0,0,0-.63.26l-.17-.14a1.05,1.05,0,0,1,.82-.33c.46,0,.76.23.76.62a.94.94,0,0,1-.38.72L158,231Z"/><path class="cls-3" d="M159.51,230.1c0-.73.38-1.17.91-1.17s.92.44.92,1.17-.38,1.17-.92,1.17-.91-.44-.91-1.17m1.59,0c0-.62-.28-1-.68-1s-.67.34-.67,1,.27,1,.67,1,.68-.34.68-1"/><path class="cls-3" d="M159.18,221.27c0,.39-.28.68-.84.68a1.21,1.21,0,0,1-.83-.29l.12-.19a1,1,0,0,0,.71.27c.38,0,.59-.18.59-.47s-.19-.45-.62-.45h-.16v-.18l.63-.8h-1.17v-.21h1.48v.17l-.65.82c.49,0,.74.29.74.65"/><path class="cls-3" d="M159.51,220.78c0-.73.38-1.16.91-1.16s.92.43.92,1.16S161,222,160.42,222s-.91-.43-.91-1.17m1.59,0c0-.61-.28-.95-.68-.95s-.67.34-.67.95.27,1,.67,1,.68-.34.68-1"/><polygon class="cls-3" points="159.61 212.33 159.15 212.33 159.15 212.94 158.91 212.94 158.91 212.33 157.62 212.33 157.62 212.16 158.83 210.63 159.1 210.63 157.92 212.12 158.92 212.12 158.92 211.59 159.15 211.59 159.15 212.12 159.61 212.12 159.61 212.33"/><path class="cls-3" d="M159.83,211.79c0-.74.38-1.17.91-1.17s.92.43.92,1.17-.39,1.17-.92,1.17-.91-.44-.91-1.17m1.59,0c0-.62-.28-1-.68-1s-.68.34-.68,1,.28,1,.68,1,.68-.34.68-1"/><path class="cls-3" d="M159.21,203.62c0,.39-.27.7-.83.7a1.17,1.17,0,0,1-.83-.3l.12-.18a1,1,0,0,0,.71.26c.39,0,.59-.19.59-.47s-.18-.48-.76-.48h-.49l.11-1.15h1.26v.21H158l-.08.73h.3c.69,0,1,.28,1,.68"/><path class="cls-3" d="M159.51,203.15c0-.73.39-1.17.92-1.17s.92.44.92,1.17-.39,1.17-.92,1.17-.92-.44-.92-1.17m1.6,0c0-.61-.28-1-.68-1s-.68.34-.68,1,.28.95.68.95.68-.34.68-.95"/><path class="cls-3" d="M159.38,194.62a.71.71,0,0,1-.78.7c-.61,0-.95-.42-.95-1.15s.43-1.19,1.06-1.19a1,1,0,0,1,.54.13l-.1.19a.76.76,0,0,0-.44-.11c-.5,0-.82.32-.82.94,0,.05,0,.12,0,.19a.76.76,0,0,1,.71-.4.7.7,0,0,1,.77.7m-.23,0c0-.3-.22-.5-.58-.5a.53.53,0,0,0-.59.51c0,.25.21.49.61.49a.5.5,0,0,0,.56-.5"/><path class="cls-3" d="M159.65,194.15c0-.73.39-1.17.92-1.17s.92.44.92,1.17-.39,1.17-.92,1.17-.92-.44-.92-1.17m1.6,0c0-.61-.28-1-.68-1s-.68.34-.68,1,.28.95.68.95.68-.33.68-.95"/><g class="cls-12"><g class="cls-13"><g class="cls-14"><rect class="cls-3" x="171.43" y="194.71" width="275.48" height="0.23"/></g><g class="cls-15"><rect class="cls-3" x="171.43" y="203.69" width="275.48" height="0.23"/></g><g class="cls-16"><rect class="cls-3" x="171.43" y="212.67" width="275.48" height="0.23"/></g><g class="cls-17"><rect class="cls-3" x="171.43" y="221.65" width="275.48" height="0.23"/></g><g class="cls-18"><rect class="cls-3" x="171.43" y="230.63" width="275.48" height="0.23"/></g><g class="cls-19"><rect class="cls-3" x="171.43" y="239.61" width="275.48" height="0.23"/></g></g></g><path class="cls-11" d="M233.37,196.64a2.74,2.74,0,1,0-2.74,2.74,2.74,2.74,0,0,0,2.74-2.74"/><path class="cls-20" d="M313.94,239.81a2.74,2.74,0,1,0-2.74,2.74,2.74,2.74,0,0,0,2.74-2.74"/><path class="cls-6" d="M115.89,122.44a.38.38,0,0,1-.24-.09l-6.29-5.7-6.3,5.7a.34.34,0,0,1-.49,0,.35.35,0,0,1,0-.49l6.53-5.91a.33.33,0,0,1,.47,0l6.53,5.91a.35.35,0,0,1-.23.61"/><path class="cls-6" d="M114.1,127.43h-9.48a.35.35,0,0,1-.35-.35v-6.6a.34.34,0,0,1,.35-.35.35.35,0,0,1,.35.35v6.25h8.78v-6.25a.35.35,0,0,1,.7,0v6.6a.35.35,0,0,1-.35.35"/><path class="cls-6" d="M115.25,168.31H102.89a.35.35,0,0,1-.35-.35v-7.88a1.78,1.78,0,0,1,1.77-1.78h3.22a2,2,0,0,1,1.84,1.23l.55,1.32h3.91a1.77,1.77,0,0,1,1.77,1.77V168a.35.35,0,0,1-.35.35m-12-.7H114.9v-5a1.07,1.07,0,0,0-1.07-1.07h-4.14a.37.37,0,0,1-.33-.22l-.64-1.53a1.29,1.29,0,0,0-1.19-.79h-3.22a1.07,1.07,0,0,0-1.07,1.07Z"/><path class="cls-6" d="M105.57,313.11a.9.9,0,0,1-.54-.18.93.93,0,0,1-.38-.9l.52-3.29a.26.26,0,0,0-.07-.2l-2.35-2.35a.92.92,0,0,1-.22-.95.89.89,0,0,1,.74-.63l3.28-.53a.22.22,0,0,0,.17-.12l1.52-3a1,1,0,0,1,1.66,0l1.52,3a.22.22,0,0,0,.17.12l3.28.53a.91.91,0,0,1,.74.63,1,1,0,0,1-.22.95L113,308.54a.23.23,0,0,0-.07.2l.52,3.29a.93.93,0,0,1-.38.9.92.92,0,0,1-1,.08l-3-1.51a.26.26,0,0,0-.21,0L106,313a.94.94,0,0,1-.43.1m3.5-2.33a.9.9,0,0,1,.42.1l3,1.5a.21.21,0,0,0,.24,0,.2.2,0,0,0,.09-.22l-.51-3.29a.92.92,0,0,1,.26-.8l2.35-2.36a.2.2,0,0,0,0-.23.21.21,0,0,0-.18-.16l-3.28-.53a.91.91,0,0,1-.69-.49l-1.51-3a.24.24,0,0,0-.42,0l-1.51,3a.93.93,0,0,1-.69.49l-3.28.53a.25.25,0,0,0-.19.16.23.23,0,0,0,.06.23l2.35,2.36a.92.92,0,0,1,.26.8l-.52,3.29a.2.2,0,0,0,.1.22.21.21,0,0,0,.24,0l3-1.5a.87.87,0,0,1,.42-.1"/><path class="cls-6" d="M116,263.76H102.13a.34.34,0,0,1-.35-.35v-8.75a.35.35,0,0,1,.35-.35H116a.35.35,0,0,1,.35.35v8.75a.35.35,0,0,1-.35.35m-13.53-.7h13.18V255H102.48Z"/><path class="cls-6" d="M109.24,261.3a.32.32,0,0,1-.23-.08l-7.11-6.3a.35.35,0,0,1,.46-.52l6.87,6.08,6.54-6.08a.35.35,0,1,1,.48.52l-6.77,6.29a.38.38,0,0,1-.24.09"/><path class="cls-6" d="M102.33,263.38a.35.35,0,0,1-.25-.6l4.22-4.22a.35.35,0,0,1,.5.5l-4.22,4.22a.35.35,0,0,1-.25.1"/><path class="cls-6" d="M116.1,263.67a.35.35,0,0,1-.25-.1l-4.51-4.51a.35.35,0,0,1,0-.5.34.34,0,0,1,.49,0l4.52,4.51a.35.35,0,0,1-.25.6"/><rect class="cls-11" x="108.33" y="207.61" width="2.05" height="2.05"/><rect class="cls-11" x="112.19" y="207.61" width="2.05" height="2.05"/><rect class="cls-11" x="104.47" y="207.61" width="2.05" height="2.05"/><rect class="cls-11" x="112.19" y="210.83" width="2.05" height="2.05"/><rect class="cls-11" x="108.33" y="210.83" width="2.05" height="2.05"/><rect class="cls-11" x="104.47" y="210.83" width="2.05" height="2.05"/><path class="cls-11" d="M116.64,216.39H102.08a.35.35,0,0,1-.35-.35v-12a.34.34,0,0,1,.35-.35h14.56a.35.35,0,0,1,.35.35v12a.35.35,0,0,1-.35.35m-14.21-.7h13.86V204.42H102.43Z"/><path class="cls-11" d="M106,205.86a.35.35,0,0,1-.35-.35v-3.86a.35.35,0,0,1,.35-.35.35.35,0,0,1,.35.35v3.86a.35.35,0,0,1-.35.35"/><path class="cls-11" d="M112.34,205.86a.35.35,0,0,1-.35-.35v-3.86a.35.35,0,0,1,.35-.35.35.35,0,0,1,.35.35v3.86a.35.35,0,0,1-.35.35"/><rect class="cls-11" x="212.44" y="332.9" width="4.67" height="15.63"/><rect class="cls-11" x="173.46" y="330.63" width="4.67" height="17.9"/><rect class="cls-11" x="183.2" y="326.9" width="4.67" height="21.63"/><rect class="cls-11" x="192.95" y="328.09" width="4.67" height="20.44"/><rect class="cls-11" x="202.69" y="321.17" width="4.67" height="27.36"/><rect class="cls-11" x="222.18" y="321.31" width="4.67" height="27.22"/><rect class="cls-11" x="231.93" y="330.25" width="4.67" height="18.28"/><rect class="cls-11" x="241.67" y="322.51" width="4.67" height="26.02"/><rect class="cls-11" x="251.42" y="316.64" width="4.67" height="31.89"/><rect class="cls-11" x="261.16" y="322.37" width="4.67" height="26.16"/><path class="cls-3" d="M275.58,367.92H160.79a9.49,9.49,0,0,1-9.47-9.48V289.81a9.49,9.49,0,0,1,9.47-9.48H275.58a9.49,9.49,0,0,1,9.48,9.48v68.63a9.49,9.49,0,0,1-9.48,9.48M160.79,281.27a8.55,8.55,0,0,0-8.54,8.54v68.63a8.55,8.55,0,0,0,8.54,8.54H275.58a8.56,8.56,0,0,0,8.55-8.54V289.81a8.56,8.56,0,0,0-8.55-8.54Z"/><path class="cls-3" d="M226.14,303.15c0,.14-13.28.24-29.66.24s-29.65-.1-29.65-.24,13.27-.24,29.65-.24,29.66.11,29.66.24"/><path class="cls-11" d="M346.71,344a15.25,15.25,0,0,1-3.82,1.58,15.56,15.56,0,0,1-8.2,0,15.25,15.25,0,0,1-3.82-1.58,15.67,15.67,0,0,1-5.79-5.79,15.25,15.25,0,0,1-1.58-3.82,15.83,15.83,0,0,1,0-8.2,15.25,15.25,0,0,1,1.58-3.82,15.43,15.43,0,0,1,2.51-3.28,15.77,15.77,0,0,1,3.28-2.51,15.25,15.25,0,0,1,3.82-1.58,15.43,15.43,0,0,1,4.1-.55v-3.12a19,19,0,0,0-13.41,5.55,19.12,19.12,0,0,0-4.91,8.5,19.12,19.12,0,0,0,0,9.81,19.08,19.08,0,0,0,4.91,8.51,18.93,18.93,0,0,0,13.41,5.55,19.38,19.38,0,0,0,4.91-.64,19.17,19.17,0,0,0,4.57-1.9,18.78,18.78,0,0,0,3.89-3L350,341.47a15.7,15.7,0,0,1-3.24,2.49"/><path class="cls-3" d="M357.11,325.34a19.17,19.17,0,0,0-1.9-4.57,18.83,18.83,0,0,0-6.94-6.94,19.17,19.17,0,0,0-4.57-1.9,19.38,19.38,0,0,0-4.91-.64v3.12a15.43,15.43,0,0,1,4.1.55,15.25,15.25,0,0,1,3.82,1.58,15.86,15.86,0,0,1,5.79,5.79,16.06,16.06,0,0,1,1.59,3.82,15.83,15.83,0,0,1,0,8.2,15.91,15.91,0,0,1-4.11,7.1l0,0,2.21,2.22,0,0a18.9,18.9,0,0,0,3-3.93,19,19,0,0,0,1.9-14.39"/><path class="cls-5" d="M335.75,332.26a1.7,1.7,0,0,1-1.87,1.68c-1.45,0-2.24-1-2.24-2.73s1-2.83,2.5-2.83a2.53,2.53,0,0,1,1.3.29l-.23.46a1.88,1.88,0,0,0-1.06-.26c-1.18,0-1.94.76-1.94,2.24a3.91,3.91,0,0,0,0,.45,1.74,1.74,0,0,1,1.67-.94,1.66,1.66,0,0,1,1.84,1.64m-.55,0c0-.72-.53-1.18-1.38-1.18a1.26,1.26,0,0,0-1.4,1.19c0,.6.5,1.17,1.44,1.17a1.2,1.2,0,0,0,1.34-1.18"/><path class="cls-5" d="M340.11,332.28c0,.93-.64,1.66-2,1.66a2.81,2.81,0,0,1-2-.7l.27-.45a2.36,2.36,0,0,0,1.68.63c.93,0,1.42-.45,1.42-1.11s-.43-1.14-1.82-1.14h-1.17l.28-2.75h3v.5h-2.51l-.18,1.75h.7c1.65,0,2.27.65,2.27,1.61"/><path class="cls-5" d="M340.67,329.87c0-.89.5-1.49,1.23-1.49s1.24.59,1.24,1.49-.51,1.48-1.24,1.48-1.23-.59-1.23-1.48m2.08,0c0-.71-.34-1.13-.85-1.13s-.84.43-.84,1.13.33,1.13.84,1.13.85-.42.85-1.13m2.47-1.45h.46l-3.74,5.47h-.46Zm-1.2,4c0-.89.51-1.49,1.24-1.49s1.23.6,1.23,1.49-.5,1.48-1.23,1.48-1.24-.59-1.24-1.48m2.08,0c0-.7-.33-1.13-.84-1.13s-.85.42-.85,1.13.34,1.13.85,1.13.84-.43.84-1.13"/><path class="cls-3" d="M412.35,330.25a18.94,18.94,0,0,1-.64,4.91,18.39,18.39,0,0,1-1.9,4.57,19.16,19.16,0,0,1-3,3.93,18.85,18.85,0,0,1-3.93,3,18.47,18.47,0,0,1-4.57,1.91,19.12,19.12,0,0,1-9.81,0,19.37,19.37,0,0,1-8.5-4.91,19.16,19.16,0,0,1-3-3.93,18.39,18.39,0,0,1-1.9-4.57,19.37,19.37,0,0,1-.6-3.59h3.14a15.69,15.69,0,0,0,4.58,9.87,16.21,16.21,0,0,0,3.28,2.53,15.87,15.87,0,0,0,7.91,2.12,15.8,15.8,0,0,0,7.92-2.12,16.21,16.21,0,0,0,3.28-2.53,16,16,0,0,0,2.52-3.27,15.86,15.86,0,0,0,1.58-3.82,15.83,15.83,0,0,0,0-8.2,15.83,15.83,0,0,0-15.3-11.74v-3.12a19.26,19.26,0,0,1,4.91.64,19.12,19.12,0,0,1,8.5,4.91,19.16,19.16,0,0,1,3,3.93,18.39,18.39,0,0,1,1.9,4.57,18.88,18.88,0,0,1,.64,4.91"/><polygon class="cls-5" points="389.12 328.11 389.12 328.51 386.83 333.58 386.22 333.58 388.47 328.61 385.66 328.61 385.66 329.64 385.1 329.64 385.1 328.11 389.12 328.11"/><path class="cls-5" d="M393.43,332c0,.93-.65,1.66-2,1.66a2.81,2.81,0,0,1-2-.7l.27-.45a2.36,2.36,0,0,0,1.68.63c.93,0,1.43-.45,1.43-1.11s-.44-1.14-1.83-1.14h-1.17l.28-2.75h3v.5h-2.5l-.19,1.75h.7c1.65,0,2.28.64,2.28,1.61"/><path class="cls-5" d="M394,329.56c0-.89.5-1.49,1.24-1.49s1.23.59,1.23,1.49-.51,1.48-1.23,1.48-1.24-.59-1.24-1.48m2.08,0c0-.71-.33-1.13-.84-1.13s-.85.43-.85,1.13.33,1.13.85,1.13.84-.42.84-1.13m2.47-1.45H399l-3.73,5.47h-.46Zm-1.2,4c0-.89.51-1.49,1.24-1.49s1.23.6,1.23,1.49-.5,1.48-1.23,1.48-1.24-.59-1.24-1.48m2.08,0c0-.71-.33-1.14-.84-1.14s-.84.43-.84,1.14.33,1.13.84,1.13.84-.43.84-1.13"/><path class="cls-11" d="M409.23,330.25a15.87,15.87,0,0,1-2.12,7.92,16,16,0,0,1-2.52,3.27,16.21,16.21,0,0,1-3.28,2.53,15.85,15.85,0,0,1-15.83,0,16.49,16.49,0,0,1-3.28-2.53,16,16,0,0,1-2.52-3.27,15.86,15.86,0,0,1-1.58-3.82,17,17,0,0,1-.48-2.78h0c0-.44-.06-.88-.06-1.32a15.84,15.84,0,0,1,.54-4.1,15.77,15.77,0,0,1,4.1-7.1,15.77,15.77,0,0,1,3.28-2.51A15.34,15.34,0,0,1,389.3,315a15.84,15.84,0,0,1,4.1-.54v-3.12a19,19,0,0,0-19,19c0,.44,0,.88.05,1.32h0a19.37,19.37,0,0,0,.6,3.59,18.39,18.39,0,0,0,1.9,4.57,19.16,19.16,0,0,0,3,3.93,19.37,19.37,0,0,0,8.5,4.91,19.12,19.12,0,0,0,9.81,0,18.47,18.47,0,0,0,4.57-1.91,18.85,18.85,0,0,0,3.93-3,19.16,19.16,0,0,0,3-3.93,18.39,18.39,0,0,0,1.9-4.57,18.94,18.94,0,0,0,.65-4.91Z"/><path class="cls-3" d="M427.29,366.71H304.9a8.25,8.25,0,0,1-8.24-8.23V289.77a8.25,8.25,0,0,1,8.24-8.24H427.29a8.25,8.25,0,0,1,8.24,8.24v68.71a8.25,8.25,0,0,1-8.24,8.23M304.9,282.47a7.31,7.31,0,0,0-7.3,7.3v68.71a7.31,7.31,0,0,0,7.3,7.3H427.29a7.32,7.32,0,0,0,7.3-7.3V289.77a7.32,7.32,0,0,0-7.3-7.3Z"/><path class="cls-3" d="M367.38,300.84c0,.13-12.8.24-28.59.24s-28.58-.11-28.58-.24,12.8-.25,28.58-.25,28.59.11,28.59.25"/><path class="cls-3" d="M468.51,207.09h0a2,2,0,0,1-1.95-2V168.58a1.95,1.95,0,0,1,3.9,0v36.56a2,2,0,0,1-1.95,2"/><path class="cls-11" d="M468.51,207.27h0a2,2,0,0,1-1.95-2V181.74a1.95,1.95,0,0,1,3.9,0v23.58a2,2,0,0,1-1.95,2"/><polygon class="cls-5" points="467.29 208.79 467.29 212.04 466.95 212.04 466.95 209.09 466.19 209.09 466.19 208.79 467.29 208.79"/><path class="cls-5" d="M468.06,210.42c0-1,.54-1.66,1.3-1.66s1.3.62,1.3,1.66-.55,1.65-1.3,1.65-1.3-.62-1.3-1.65m2.25,0c0-.87-.39-1.35-.95-1.35s-1,.48-1,1.35.39,1.34,1,1.34.95-.47.95-1.34"/><path class="cls-3" d="M476.3,207.09h0a2,2,0,0,1-1.95-2V168.58a1.95,1.95,0,1,1,3.9,0v36.56a2,2,0,0,1-1.95,2"/><path class="cls-11" d="M476.3,207.27h0a2,2,0,0,1-1.95-2v-31a1.95,1.95,0,0,1,3.9,0v31a2,2,0,0,1-1.95,2"/><path class="cls-5" d="M475.84,211.75V212h-2.28v-.23l1.35-1.33c.37-.36.44-.58.44-.8,0-.38-.27-.61-.76-.61a1.11,1.11,0,0,0-.89.36l-.24-.2a1.46,1.46,0,0,1,1.15-.47c.66,0,1.08.34,1.08.88a1.36,1.36,0,0,1-.53,1l-1.11,1.09Z"/><path class="cls-5" d="M476.24,210.42c0-1,.54-1.66,1.29-1.66s1.3.62,1.3,1.66-.55,1.65-1.3,1.65-1.29-.62-1.29-1.65m2.25,0c0-.87-.39-1.35-1-1.35s-.95.48-.95,1.35.39,1.34.95,1.34,1-.47,1-1.34"/><path class="cls-3" d="M484.1,207.09h0a2,2,0,0,1-2-2V168.58a1.95,1.95,0,1,1,3.89,0v36.56a1.94,1.94,0,0,1-1.94,2"/><path class="cls-11" d="M484.1,207.27h0a2,2,0,0,1-2-2v-18a1.95,1.95,0,1,1,3.89,0v18a2,2,0,0,1-1.94,2"/><path class="cls-5" d="M483.59,211.11c0,.54-.4,1-1.18,1a1.67,1.67,0,0,1-1.17-.42l.16-.26a1.43,1.43,0,0,0,1,.37c.54,0,.84-.25.84-.65s-.28-.65-.88-.65h-.23v-.24l.9-1.13h-1.67v-.3h2.09V209l-.92,1.15c.7,0,1,.41,1,.93"/><path class="cls-5" d="M484.06,210.42c0-1,.54-1.66,1.29-1.66s1.3.62,1.3,1.66-.55,1.65-1.3,1.65-1.29-.62-1.29-1.65m2.25,0c0-.87-.39-1.35-1-1.35s-1,.48-1,1.35.39,1.34,1,1.34,1-.47,1-1.34"/><path class="cls-3" d="M491.89,207.09h0a2,2,0,0,1-1.95-2V168.58a1.95,1.95,0,0,1,3.9,0v36.56a2,2,0,0,1-1.95,2"/><path class="cls-11" d="M491.89,207.27h0a2,2,0,0,1-1.95-2v-31a1.95,1.95,0,0,1,3.9,0v31a2,2,0,0,1-1.95,2"/><polygon class="cls-5" points="491.9 211.19 491.25 211.19 491.25 212.04 490.92 212.04 490.92 211.19 489.09 211.19 489.09 210.95 490.81 208.79 491.18 208.79 489.52 210.89 490.93 210.89 490.93 210.14 491.25 210.14 491.25 210.89 491.9 210.89 491.9 211.19"/><path class="cls-5" d="M492.21,210.42c0-1,.54-1.66,1.29-1.66s1.3.62,1.3,1.66-.55,1.65-1.3,1.65-1.29-.62-1.29-1.65m2.25,0c0-.87-.39-1.35-1-1.35s-.95.48-.95,1.35.39,1.34.95,1.34,1-.47,1-1.34"/><path class="cls-3" d="M499.68,207.09h0a2,2,0,0,1-1.95-2V168.58a1.95,1.95,0,1,1,3.9,0v36.56a2,2,0,0,1-1.95,2"/><path class="cls-11" d="M499.68,207.27h0a2,2,0,0,1-1.95-2V180.26a1.95,1.95,0,1,1,3.9,0v25.06a2,2,0,0,1-1.95,2"/><path class="cls-5" d="M499.51,211.09c0,.55-.39,1-1.18,1a1.67,1.67,0,0,1-1.17-.42l.16-.26a1.4,1.4,0,0,0,1,.37c.55,0,.85-.27.85-.66s-.26-.68-1.09-.68h-.69l.17-1.63h1.77v.3h-1.48l-.11,1h.41c1,0,1.36.39,1.36,1"/><path class="cls-5" d="M499.93,210.42c0-1,.54-1.66,1.29-1.66s1.3.62,1.3,1.66-.55,1.65-1.3,1.65-1.29-.62-1.29-1.65m2.25,0c0-.87-.39-1.35-1-1.35s-1,.48-1,1.35.4,1.34,1,1.34,1-.47,1-1.34"/><path class="cls-3" d="M507.47,207.09h0a2,2,0,0,1-2-2V168.58a2,2,0,1,1,3.9,0v36.56a2,2,0,0,1-1.95,2"/><path class="cls-11" d="M507.47,207.09h0a1.92,1.92,0,0,1-2-1.77v-18a2,2,0,0,1,2-2.12,2,2,0,0,1,1.95,1.95v18a2,2,0,0,1-1.95,2"/><path class="cls-5" d="M507.22,211.07a1,1,0,0,1-1.11,1c-.87,0-1.34-.6-1.34-1.62s.61-1.69,1.49-1.69a1.54,1.54,0,0,1,.77.18l-.14.27a1.11,1.11,0,0,0-.63-.15c-.7,0-1.15.45-1.15,1.33,0,.07,0,.17,0,.26a1,1,0,0,1,1-.55,1,1,0,0,1,1.1,1m-.33,0c0-.43-.32-.7-.82-.7a.76.76,0,0,0-.84.71c0,.36.3.7.86.7a.72.72,0,0,0,.8-.71"/><path class="cls-5" d="M507.6,210.42c0-1,.54-1.66,1.29-1.66s1.3.62,1.3,1.66-.54,1.65-1.3,1.65-1.29-.62-1.29-1.65m2.25,0c0-.87-.39-1.35-1-1.35s-.95.48-.95,1.35.39,1.34.95,1.34,1-.47,1-1.34"/><path class="cls-3" d="M515.26,207.09h0a2,2,0,0,1-2-2V168.58a2,2,0,0,1,3.9,0v36.56a2,2,0,0,1-2,2"/><path class="cls-11" d="M515.26,207.27h0a2,2,0,0,1-2-2V172.46a2,2,0,0,1,3.9,0v32.86a2,2,0,0,1-2,2"/><polygon class="cls-5" points="514.85 208.79 514.85 209.03 513.49 212.04 513.12 212.04 514.46 209.09 512.79 209.09 512.79 209.7 512.46 209.7 512.46 208.79 514.85 208.79"/><path class="cls-5" d="M515.19,210.42c0-1,.55-1.66,1.3-1.66s1.3.62,1.3,1.66-.55,1.65-1.3,1.65-1.3-.62-1.3-1.65m2.26,0c0-.87-.39-1.35-1-1.35s-1,.48-1,1.35.39,1.34,1,1.34,1-.47,1-1.34"/><path class="cls-3" d="M523.05,207.09h0a2,2,0,0,1-1.95-2V168.58a2,2,0,0,1,3.9,0v36.56a2,2,0,0,1-2,2"/><path class="cls-11" d="M523.05,207.27h0a2,2,0,0,1-1.95-2V191a2,2,0,0,1,3.9,0v14.3a2,2,0,0,1-2,2"/><path class="cls-5" d="M522.67,211.14c0,.57-.49.93-1.27.93s-1.25-.36-1.25-.93a.81.81,0,0,1,.63-.8.75.75,0,0,1-.52-.72c0-.53.46-.86,1.14-.86s1.15.33,1.15.86a.75.75,0,0,1-.52.72.81.81,0,0,1,.64.8m-.35,0c0-.4-.34-.65-.92-.65s-.91.25-.91.65.34.66.91.66.92-.25.92-.66m-.92-.91c.51,0,.81-.23.81-.58s-.32-.59-.81-.59-.8.22-.8.58.3.59.8.59"/><path class="cls-5" d="M523.13,210.42c0-1,.54-1.66,1.29-1.66s1.3.62,1.3,1.66-.54,1.65-1.3,1.65-1.29-.62-1.29-1.65m2.25,0c0-.87-.39-1.35-1-1.35s-.95.48-.95,1.35.39,1.34.95,1.34,1-.47,1-1.34"/><path class="cls-3" d="M530.85,207.09h0a2,2,0,0,1-2-2V168.58a1.95,1.95,0,1,1,3.89,0v36.56a1.94,1.94,0,0,1-1.94,2"/><path class="cls-11" d="M530.85,207.09h0a1.92,1.92,0,0,1-2-1.77v-5a2,2,0,0,1,2-2.12,2,2,0,0,1,1.94,1.95v5a1.94,1.94,0,0,1-1.94,2"/><path class="cls-5" d="M530.26,210.39c0,1.1-.61,1.68-1.49,1.68a1.46,1.46,0,0,1-.77-.18l.14-.27a1.06,1.06,0,0,0,.63.16c.7,0,1.15-.45,1.15-1.34,0-.07,0-.16,0-.26a1.05,1.05,0,0,1-1,.56,1,1,0,0,1-1.09-1,1,1,0,0,1,1.11-1c.86,0,1.33.6,1.33,1.63m-.46-.65c0-.35-.3-.69-.86-.69a.7.7,0,0,0-.79.7c0,.43.31.7.81.7a.75.75,0,0,0,.84-.71"/><path class="cls-5" d="M530.74,210.42c0-1,.54-1.66,1.29-1.66s1.31.62,1.31,1.66-.55,1.65-1.31,1.65-1.29-.62-1.29-1.65m2.25,0c0-.87-.39-1.35-1-1.35s-.95.48-.95,1.35.39,1.34.95,1.34,1-.47,1-1.34"/><path class="cls-3" d="M538.64,207.09h0a2,2,0,0,1-1.95-2V168.58a2,2,0,0,1,3.9,0v36.56a2,2,0,0,1-2,2"/><path class="cls-11" d="M538.64,207.09h0a1.92,1.92,0,0,1-1.95-1.77v-18a2,2,0,0,1,1.95-2.12,2,2,0,0,1,2,1.95v18a2,2,0,0,1-2,2"/><polygon class="cls-5" points="535.84 208.79 535.84 212.04 535.51 212.04 535.51 209.09 534.74 209.09 534.74 208.79 535.84 208.79"/><path class="cls-5" d="M536.62,210.42c0-1,.54-1.66,1.29-1.66s1.3.62,1.3,1.66-.54,1.65-1.3,1.65-1.29-.62-1.29-1.65m2.25,0c0-.87-.39-1.35-1-1.35s-.95.48-.95,1.35.39,1.34.95,1.34,1-.47,1-1.34"/><path class="cls-5" d="M539.69,210.42c0-1,.54-1.66,1.3-1.66s1.3.62,1.3,1.66-.55,1.65-1.3,1.65-1.3-.62-1.3-1.65m2.25,0c0-.87-.39-1.35-1-1.35s-1,.48-1,1.35.39,1.34,1,1.34,1-.47,1-1.34"/><path class="cls-3" d="M523,148.35c0,.14-12.68.24-28.33.24s-28.33-.1-28.33-.24,12.68-.24,28.33-.24,28.33.11,28.33.24"/><path class="cls-3" d="M540.59,233.9c0,.13-16.63.24-37.14.24s-37.14-.11-37.14-.24,16.62-.24,37.14-.24,37.14.11,37.14.24"/><path class="cls-3" d="M540.59,246.66c0,.14-16.63.25-37.14.25s-37.14-.11-37.14-.25,16.62-.24,37.14-.24,37.14.11,37.14.24"/><path class="cls-3" d="M540.59,259.42c0,.14-16.63.25-37.14.25s-37.14-.11-37.14-.25,16.62-.24,37.14-.24,37.14.11,37.14.24"/><path class="cls-3" d="M540.59,272.18c0,.14-16.63.25-37.14.25s-37.14-.11-37.14-.25,16.62-.24,37.14-.24,37.14.11,37.14.24"/><path class="cls-3" d="M540.59,285c0,.13-16.63.24-37.14.24s-37.14-.11-37.14-.24,16.62-.25,37.14-.25,37.14.11,37.14.25"/><path class="cls-11" d="M537.64,328.37a12.53,12.53,0,0,1,12.51,12.51V351.3a12.52,12.52,0,0,1-12.51,12.51h-69.9a12.52,12.52,0,0,1-12.51-12.51V340.88a12.53,12.53,0,0,1,12.51-12.51h69.9m0-.93h-69.9a13.45,13.45,0,0,0-13.45,13.44V351.3a13.45,13.45,0,0,0,13.45,13.44h69.9a13.45,13.45,0,0,0,13.45-13.44V340.88a13.45,13.45,0,0,0-13.45-13.44"/><path class="cls-11" d="M531.78,347.14c0,.13-13,.24-29.09.24s-29.09-.11-29.09-.24,13-.24,29.09-.24,29.09.11,29.09.24"/><path class="cls-11" d="M258.44,92.3c7.21-5.65,13.58-12.6,21.86-16.53,14.22-6.76,31-3.34,46.19.85s31.22,9,46.37,4.73c14-4,25.22-16.33,28.34-30.52H140.59c3.47,28.82,25.19,52.58,54.06,57.57l1.81.29a82.19,82.19,0,0,0,62-16.39"/><path class="cls-11" d="M435.3,77.56c7.34,6.66,18,8.47,27.88,7.34,6.63-.77,13.36-2.88,18.15-7.53a23.22,23.22,0,0,0,6.19-20.85,24.78,24.78,0,0,0-1.86-5.69H431.39c-6,7.86-3.41,20.08,3.91,26.73"/><g class="cls-21"><g class="cls-22"><path class="cls-23" d="M258.44,92.3c7.21-5.65,13.58-12.6,21.86-16.53,14.22-6.76,31-3.34,46.19.85s31.22,9,46.37,4.73c14-4,25.22-16.33,28.34-30.52H140.59c3.47,28.82,25.19,52.58,54.06,57.57l1.81.29a82.19,82.19,0,0,0,62-16.39"/><path class="cls-23" d="M435.3,77.56c7.34,6.66,18,8.47,27.88,7.34,6.63-.77,13.36-2.88,18.15-7.53a23.22,23.22,0,0,0,6.19-20.85,24.78,24.78,0,0,0-1.86-5.69H431.39c-6,7.86-3.41,20.08,3.91,26.73"/></g></g><path class="cls-5" d="M489,78.47s.15-.08.43,0a1.66,1.66,0,0,1,1,.55,1.82,1.82,0,0,1,.37,1.73,1.86,1.86,0,0,1-3.52.11,1.79,1.79,0,0,1,.26-1.75,1.67,1.67,0,0,1,1-.62c.27,0,.42,0,.42,0s-.65.07-1.14.79a1.49,1.49,0,0,0-.12,1.39,1.43,1.43,0,0,0,2.67-.09,1.5,1.5,0,0,0-.21-1.37,2.34,2.34,0,0,0-1.2-.72"/><path class="cls-5" d="M489.45,76.37a5.11,5.11,0,0,1-.4-.84l.09,0-1.52.25.11-.11c0,.29,0,.6-.07.93v.08l-.08,0a3.49,3.49,0,0,0-.82.49l-.08.06-.09,0-.85-.37.21,0L485,78.09v-.24l.6.71.08.09,0,.12a3.57,3.57,0,0,0-.23.91l0,.13-.12,0-.86.34.14-.24c.07.48.14,1,.21,1.52l-.2-.19.92.08h.14l.06.13a3.54,3.54,0,0,0,.47.81l.09.11-.06.13-.38.85-.07-.29L487,84h-.3l.71-.59.11-.1.14.06a3.85,3.85,0,0,0,.9.24h0l.19.15h0v0l0,0,0,0,0,.11.08.22.16.43-.26-.15,1.52-.21-.21.22.09-.93v-.14l.13-.06a3.49,3.49,0,0,0,.82-.47l.11-.08.13.06.84.38-.28.08c.32-.42.63-.83.94-1.22v.28l-.6-.72-.08-.1,0-.12a3.86,3.86,0,0,0,.25-.91v-.13l.12,0,.87-.31-.12.21c-.07-.53-.13-1-.2-1.52l.17.16-.92-.09h-.11l0-.1a3,3,0,0,0-.47-.83l-.06-.08,0-.09c.15-.3.28-.58.4-.84l0,.18-1.2-1h.13l-.73.58,0,0,0,0c-.61-.27-.95-.29-.94-.33a.54.54,0,0,1,.25,0,2.88,2.88,0,0,1,.75.19h-.08c.2-.19.43-.39.69-.62l.06-.06.08,0,1.24.91.09.06,0,.11-.37.85,0-.16a4.13,4.13,0,0,1,.54.9l-.15-.11.93.07h.14l0,.15c.08.48.15,1,.23,1.52l0,.16-.15.06-.87.33.14-.17a3.76,3.76,0,0,1-.27,1l0-.22.6.71.11.13-.1.15c-.31.4-.61.81-.93,1.23l-.11.14-.17-.07-.85-.38.25,0a4.44,4.44,0,0,1-.92.54l.14-.2c0,.3-.05.61-.08.92v.19l-.19,0-1.53.21-.19,0-.07-.18-.16-.43-.08-.22,0-.11,0,0v0h0l.2.16h0a4.33,4.33,0,0,1-1-.27l.25,0c-.24.2-.48.41-.71.59l-.15.13-.15-.12-1.22-.93-.15-.12.08-.17.38-.85,0,.25a4.83,4.83,0,0,1-.53-.92l.19.14-.92-.09-.18,0,0-.17c-.06-.53-.13-1.05-.19-1.53l0-.17.17-.06.87-.32-.14.17a3.91,3.91,0,0,1,.28-1l0,.21c-.2-.25-.4-.5-.59-.72l-.09-.12.09-.12.94-1.21.09-.11.12,0,.84.4-.16,0a3.76,3.76,0,0,1,.91-.51l-.09.12c0-.33.07-.64.1-.92v-.1h.1l1.53-.17h.06l0,0a4.77,4.77,0,0,1,.25.9"/><path class="cls-5" d="M552.22,384.35l.26,0a7.25,7.25,0,0,0,.77-.06,8,8,0,0,0,6.29-4.62,8,8,0,0,0,.75-3.14c0-1.17,0-2.43,0-3.76,0-10.65,0-26.35,0-46.57,0-40.45,0-99-.07-171.3q0-27.12,0-56.76,0-14.81,0-30.19V60.2a10.17,10.17,0,0,0-.42-3.78,7.91,7.91,0,0,0-2-3.18,7.73,7.73,0,0,0-3.28-1.89,13.33,13.33,0,0,0-3.86-.32h-7.94l-135.76,0-311.09,0a7.86,7.86,0,0,0-4.68,1.52,8,8,0,0,0-2.88,4,17.18,17.18,0,0,0-.36,5V87.3q0,20.43,0,40.59v79.38c0,52,0,102.23,0,150q0,9,0,17.82a14.11,14.11,0,0,0,.09,2.17,8.26,8.26,0,0,0,.57,2.07,8,8,0,0,0,2.67,3.28,7.78,7.78,0,0,0,4,1.44c1.43.07,2.91,0,4.36,0H199.83l118.29,0,234.1.17-234.1.18-118.29,0H99.46c-1.47,0-2.9,0-4.39,0a8.33,8.33,0,0,1-7-5,7.86,7.86,0,0,1-.61-2.18,15.24,15.24,0,0,1-.09-2.23V357.32c0-47.82,0-98,0-150V59.07a9.33,9.33,0,0,1,.38-2.62,8.43,8.43,0,0,1,8-5.86l311.09,0,135.76,0h7.94a14,14,0,0,1,4,.33,8.36,8.36,0,0,1,5.58,5.33,10.89,10.89,0,0,1,.45,3.91c0,2.59,0,5.16,0,7.73V98.12q0,29.61,0,56.76c0,72.32-.06,130.85-.08,171.3,0,20.22,0,35.92,0,46.57,0,1.33,0,2.59,0,3.76a8.26,8.26,0,0,1-.77,3.17,8.16,8.16,0,0,1-3.43,3.67,7.88,7.88,0,0,1-2.93.94,6.64,6.64,0,0,1-1,.06"/><path class="cls-3" d="M434.75,167H361.87a9.57,9.57,0,0,1-9.56-9.57V133.1a9.56,9.56,0,0,1,9.56-9.56h72.88a9.56,9.56,0,0,1,9.57,9.56v24.32a9.57,9.57,0,0,1-9.57,9.57"/><polygon class="cls-5" points="377.5 144.38 377.5 152.38 376.67 152.38 376.67 145.11 374.79 145.11 374.79 144.38 377.5 144.38"/><path class="cls-5" d="M384.83,150c0,1.36-.94,2.42-2.9,2.42a4.14,4.14,0,0,1-2.87-1l.4-.65a3.47,3.47,0,0,0,2.46.92c1.36,0,2.08-.66,2.08-1.63s-.64-1.67-2.67-1.67h-1.71l.41-4h4.38v.73h-3.66l-.27,2.55h1c2.41,0,3.32,1,3.32,2.37"/><path class="cls-5" d="M385.88,148.38c0-2.55,1.33-4.07,3.19-4.07s3.2,1.52,3.2,4.07-1.35,4.07-3.2,4.07-3.19-1.52-3.19-4.07m5.54,0c0-2.14-1-3.31-2.35-3.31s-2.36,1.17-2.36,3.31,1,3.31,2.36,3.31,2.35-1.17,2.35-3.31"/><path class="cls-5" d="M393.44,148.38c0-2.55,1.34-4.07,3.19-4.07s3.2,1.52,3.2,4.07-1.35,4.07-3.2,4.07-3.19-1.52-3.19-4.07m5.55,0c0-2.14-1-3.31-2.36-3.31s-2.35,1.17-2.35,3.31,1,3.31,2.35,3.31,2.36-1.17,2.36-3.31"/><polygon class="cls-5" points="407.81 150.28 406.21 150.28 406.21 152.38 405.39 152.38 405.39 150.28 400.87 150.28 400.87 149.68 405.11 144.38 406.03 144.38 401.94 149.55 405.41 149.55 405.41 147.69 406.21 147.69 406.21 149.55 407.81 149.55 407.81 150.28"/><path class="cls-5" d="M414,151.65v.73h-5.61v-.58l3.33-3.26c.9-.89,1.07-1.43,1.07-2,0-.92-.65-1.49-1.87-1.49a2.68,2.68,0,0,0-2.18.89l-.59-.5a3.58,3.58,0,0,1,2.84-1.15c1.62,0,2.65.83,2.65,2.16A3.3,3.3,0,0,1,412.3,149l-2.72,2.67Z"/><path class="cls-5" d="M415,148.38c0-2.55,1.34-4.07,3.19-4.07s3.2,1.52,3.2,4.07-1.35,4.07-3.2,4.07-3.19-1.52-3.19-4.07m5.54,0c0-2.14-1-3.31-2.35-3.31s-2.36,1.17-2.36,3.31,1,3.31,2.36,3.31,2.35-1.17,2.35-3.31"/><path class="cls-5" d="M406.32,136.15c0,.13-8.9.24-19.88.24s-19.87-.11-19.87-.24,8.9-.25,19.87-.25,19.88.11,19.88.25"/><path class="cls-3" d="M334.42,167.23H261.54a9.57,9.57,0,0,1-9.56-9.57V133.34a9.56,9.56,0,0,1,9.56-9.56h72.88a9.57,9.57,0,0,1,9.57,9.56v24.32a9.58,9.58,0,0,1-9.57,9.57"/><path class="cls-5" d="M273.55,154.7V156H273v-1.3a4.33,4.33,0,0,1-2.74-1l.34-.65a3.92,3.92,0,0,0,2.4,1v-3c-1.26-.3-2.54-.69-2.54-2.2,0-1.1.79-2.05,2.54-2.18v-1.32h.57v1.3a4.6,4.6,0,0,1,2.32.71l-.29.68a4.32,4.32,0,0,0-2-.67v3c1.29.31,2.65.68,2.65,2.21,0,1.11-.84,2.07-2.65,2.17m-.57-4.53v-2.85c-1.18.1-1.71.71-1.71,1.43s.77,1.18,1.71,1.42m2.38,2.4c0-.9-.83-1.21-1.81-1.45V154c1.25-.09,1.81-.67,1.81-1.41"/><path class="cls-5" d="M285.79,153.91v.73h-5.61v-.58l3.32-3.26c.91-.89,1.08-1.43,1.08-2,0-.93-.65-1.5-1.88-1.5a2.71,2.71,0,0,0-2.18.89l-.58-.5a3.59,3.59,0,0,1,2.83-1.15c1.62,0,2.65.83,2.65,2.16a3.32,3.32,0,0,1-1.31,2.51l-2.72,2.67Z"/><path class="cls-5" d="M292.11,152.35c0,1.33-1,2.36-2.9,2.36a4.13,4.13,0,0,1-2.88-1l.4-.65a3.49,3.49,0,0,0,2.48.93c1.32,0,2.05-.62,2.05-1.61s-.67-1.59-2.16-1.59h-.57v-.61l2.22-2.78h-4.09v-.73h5.14v.59l-2.26,2.84c1.71.09,2.57,1,2.57,2.28"/><path class="cls-5" d="M298.58,152.29c0,1.36-.95,2.42-2.9,2.42a4.12,4.12,0,0,1-2.87-1l.4-.65a3.45,3.45,0,0,0,2.46.93c1.36,0,2.08-.67,2.08-1.64s-.64-1.67-2.68-1.67h-1.7l.41-4h4.38v.73H294.5l-.27,2.55h1c2.41,0,3.33,1,3.33,2.37"/><path class="cls-5" d="M299.62,150.64c0-2.55,1.34-4.07,3.19-4.07s3.2,1.52,3.2,4.07-1.35,4.07-3.2,4.07-3.19-1.52-3.19-4.07m5.54,0c0-2.13-1-3.31-2.35-3.31s-2.35,1.18-2.35,3.31,1,3.32,2.35,3.32,2.35-1.18,2.35-3.32"/><path class="cls-5" d="M308.3,154.07a1.92,1.92,0,0,1-.16.66l-.48,1.58h-.55l.39-1.66a.56.56,0,0,1-.41-.58.61.61,0,1,1,1.21,0"/><path class="cls-5" d="M309.36,150.64c0-2.55,1.34-4.07,3.19-4.07s3.2,1.52,3.2,4.07-1.35,4.07-3.2,4.07-3.19-1.52-3.19-4.07m5.54,0c0-2.13-1-3.31-2.35-3.31s-2.36,1.18-2.36,3.31,1,3.32,2.36,3.32,2.35-1.18,2.35-3.32"/><path class="cls-5" d="M316.93,150.64c0-2.55,1.33-4.07,3.19-4.07s3.2,1.52,3.2,4.07-1.35,4.07-3.2,4.07-3.19-1.52-3.19-4.07m5.54,0c0-2.13-1-3.31-2.35-3.31s-2.36,1.18-2.36,3.31,1,3.32,2.36,3.32,2.35-1.18,2.35-3.32"/><path class="cls-5" d="M304.93,137.3c0,.13-8.06.24-18,.24s-18-.11-18-.24,8.06-.24,18-.24,18,.11,18,.24"/><path class="cls-24" d="M233.73,167.23H160.85a9.57,9.57,0,0,1-9.56-9.57V133.34a9.56,9.56,0,0,1,9.56-9.56h72.88a9.56,9.56,0,0,1,9.57,9.56v24.32a9.57,9.57,0,0,1-9.57,9.57"/><path class="cls-23" d="M172.1,154.7V156h-.57v-1.3a4.3,4.3,0,0,1-2.73-1l.33-.65a4,4,0,0,0,2.4,1v-3c-1.26-.3-2.54-.69-2.54-2.2,0-1.1.79-2.05,2.54-2.18v-1.32h.57v1.3a4.54,4.54,0,0,1,2.32.71l-.28.68a4.36,4.36,0,0,0-2-.67v3c1.29.31,2.65.68,2.65,2.21,0,1.11-.83,2.07-2.65,2.17m-.57-4.53v-2.85c-1.18.1-1.7.7-1.7,1.43s.76,1.18,1.7,1.42m2.39,2.4c0-.9-.83-1.21-1.82-1.45V154c1.26-.09,1.82-.67,1.82-1.41"/><path class="cls-23" d="M184.34,153.91v.73h-5.61v-.58l3.33-3.26c.9-.89,1.07-1.43,1.07-2,0-.93-.65-1.5-1.87-1.5a2.68,2.68,0,0,0-2.18.89l-.59-.5a3.61,3.61,0,0,1,2.84-1.15c1.62,0,2.65.83,2.65,2.16a3.29,3.29,0,0,1-1.32,2.51l-2.72,2.67Z"/><polygon class="cls-23" points="187.59 146.64 187.59 154.64 186.77 154.64 186.77 147.37 184.88 147.37 184.88 146.64 187.59 146.64"/><path class="cls-23" d="M189.5,150.64c0-2.55,1.34-4.07,3.19-4.07s3.2,1.52,3.2,4.07-1.35,4.07-3.2,4.07-3.19-1.52-3.19-4.07m5.54,0c0-2.13-1-3.31-2.35-3.31s-2.35,1.18-2.35,3.31,1,3.32,2.35,3.32,2.35-1.18,2.35-3.32"/><path class="cls-23" d="M197.07,150.64c0-2.55,1.33-4.07,3.19-4.07s3.2,1.52,3.2,4.07-1.35,4.07-3.2,4.07-3.19-1.52-3.19-4.07m5.54,0c0-2.13-1-3.31-2.35-3.31s-2.36,1.18-2.36,3.31,1,3.32,2.36,3.32,2.35-1.18,2.35-3.32"/><path class="cls-23" d="M205.74,154.07a1.71,1.71,0,0,1-.16.66l-.48,1.58h-.55l.39-1.66a.56.56,0,0,1-.41-.58.61.61,0,1,1,1.21,0"/><path class="cls-23" d="M212.7,150.57c0,2.72-1.48,4.14-3.65,4.14a3.66,3.66,0,0,1-1.9-.43l.33-.67A2.76,2.76,0,0,0,209,154c1.72,0,2.83-1.11,2.83-3.28,0-.18,0-.41,0-.65a2.56,2.56,0,0,1-2.45,1.37,2.43,2.43,0,0,1-2.7-2.4,2.49,2.49,0,0,1,2.73-2.46c2.13,0,3.28,1.48,3.28,4M211.57,149c0-.88-.73-1.72-2.11-1.72a1.76,1.76,0,0,0-2,1.74c0,1.05.78,1.72,2,1.72a1.84,1.84,0,0,0,2-1.74"/><path class="cls-23" d="M213.89,150.64c0-2.55,1.34-4.07,3.19-4.07s3.2,1.52,3.2,4.07-1.35,4.07-3.2,4.07-3.19-1.52-3.19-4.07m5.55,0c0-2.13-1-3.31-2.36-3.31s-2.35,1.18-2.35,3.31,1,3.32,2.35,3.32,2.36-1.18,2.36-3.32"/><path class="cls-23" d="M200.58,137.3c0,.13-7.41.24-16.54.24s-16.54-.11-16.54-.24,7.4-.24,16.54-.24,16.54.11,16.54.24"/><path class="cls-23" d="M109.36,88.19h0a8,8,0,1,1,8-8,8,8,0,0,1-8,8"/><path class="cls-25" d="M531.66,286.85s9,3,12.79,25.28C548.08,333.3,556,343.82,556,343.82l30.22,5.27L572,374.24l-41.09-14.4-2.15-42Z"/><path class="cls-25" d="M477.11,286.31s-13.53,1.77-17.33,15.49-7.95,46-7.95,46l-24.75,41.9,16.43,10.22L468,366.71a28.69,28.69,0,0,0,5.43-12.94,27.26,27.26,0,0,0,.22-5.4l-.59-10.27Z"/><path class="cls-25" d="M473.83,287,468.94,321a34.64,34.64,0,0,0,1,14.67l6,20.66s-5.17,11.6,1.59,15.66c1.33.79,34.51,1.33,34.51,1.33h14.59l5.3-51.44-.33-35s-12.18-4.44-17-5a180.64,180.64,0,0,0-26.6.22Z"/><path class="cls-5" d="M460.37,354a27.64,27.64,0,0,0-3.82-3.72,14.28,14.28,0,0,0-3.29-1.82,5.38,5.38,0,0,1-1.43-.68,4.78,4.78,0,0,1,1.56.36,10.84,10.84,0,0,1,3.44,1.75,9.9,9.9,0,0,1,3.54,4.11"/><path class="cls-5" d="M472.05,304.73a10.24,10.24,0,0,1-.43,1.57c-.16.49-.35,1.1-.52,1.83s-.43,1.52-.6,2.44a53.21,53.21,0,0,0-1,6.46,61.32,61.32,0,0,0-.19,8,85.69,85.69,0,0,0,2,14.43c.41,1.83.76,3.3,1,4.31a10.76,10.76,0,0,1,.34,1.6,10,10,0,0,1-.52-1.55c-.31-1-.71-2.46-1.16-4.28a75.9,75.9,0,0,1-2.18-14.49A58.56,58.56,0,0,1,469,317a49.94,49.94,0,0,1,1.14-6.5c.2-.92.47-1.72.68-2.44s.41-1.32.6-1.81a9.33,9.33,0,0,1,.61-1.51"/><path class="cls-5" d="M531.51,306.68a9.29,9.29,0,0,1,.11,1.59c0,1,.06,2.49.08,4.32,0,3.64,0,8.68-.3,14.25s-.65,10.59-1,14.22c-.18,1.81-.35,3.28-.48,4.29a10.84,10.84,0,0,1-.25,1.57,10.55,10.55,0,0,1,.06-1.59c.08-1.1.19-2.55.32-4.3.28-3.64.62-8.66.87-14.22s.38-10.58.44-14.23c0-1.76.06-3.21.08-4.31a10.64,10.64,0,0,1,.08-1.59"/><g class="cls-26"><g class="cls-27"><path class="cls-28" d="M518.25,347c.68,1.13-.39,3.27-3.07,5.54a26,26,0,0,1-5.13,3.27,33,33,0,0,1-14.39,3.27,24.71,24.71,0,0,1-6-.73c-3.4-.88-5.3-2.34-5.17-3.66s2.17-2.35,5.15-3.23,6.94-1.73,11.27-2.71,8.26-1.94,11.34-2.44,5.33-.48,6,.69"/></g></g><path class="cls-5" d="M519.61,348.32a10,10,0,0,1-1,1.16,12.88,12.88,0,0,1-1.33,1.26,24,24,0,0,1-1.88,1.54l-1.15.83c-.4.29-.85.54-1.29.82a29.52,29.52,0,0,1-3,1.62,33.73,33.73,0,0,1-15,3.3,32.08,32.08,0,0,1-3.38-.23c-.52-.07-1-.1-1.52-.2l-1.39-.27a22,22,0,0,1-2.35-.61,14,14,0,0,1-1.74-.59,10.07,10.07,0,0,1-1.43-.62c0-.11,2.09.8,5.59,1.48l1.38.24c.48.08,1,.11,1.51.17a31.72,31.72,0,0,0,3.33.18,37.23,37.23,0,0,0,7.61-.81,37.94,37.94,0,0,0,7.24-2.44,32.54,32.54,0,0,0,3-1.57c.44-.27.89-.51,1.3-.78l1.14-.8c2.9-2.09,4.38-3.77,4.46-3.68"/><path class="cls-5" d="M533.49,287.93c.13.09-1.27,1.92-2.24,4.54s-1.16,4.91-1.31,4.89a10.75,10.75,0,0,1,.85-5.06,11,11,0,0,1,2.7-4.37"/><g class="cls-29"><g class="cls-30"><path class="cls-23" d="M536.76,322.06c-2,.71-1.14.47-2,2.13a5.85,5.85,0,0,0-.21,5.35,6.7,6.7,0,0,0,3.76,2.81c1.81.64,4,.84,5.51-.31a4.94,4.94,0,0,0,1.38-5.3,6.9,6.9,0,0,0-8.81-4.58"/><path class="cls-23" d="M512.74,341.83c-.7-1.27-3.89-2-5.05-1.15a3.48,3.48,0,0,0,0,4.06,3.17,3.17,0,0,0,3.9.85,2.9,2.9,0,0,0,1.14-3.76"/><path class="cls-23" d="M468.73,345.2c-.69-1.27-3.88-2-5.05-1.15a3.48,3.48,0,0,0,0,4.06,3.18,3.18,0,0,0,3.9.85,2.89,2.89,0,0,0,1.13-3.76"/><path class="cls-23" d="M480.37,289.81a11.45,11.45,0,0,0-8.56,6.08,6.34,6.34,0,0,0-.79,3.34,3.42,3.42,0,0,0,1.74,2.81c1.54.77,3.36,0,4.84-.91a15.94,15.94,0,0,0,3.6-2.65,6.86,6.86,0,0,0,2-3.93,4.4,4.4,0,0,0-1.59-4,3.27,3.27,0,0,0-4.12.17"/><path class="cls-23" d="M454.47,360.94a11.45,11.45,0,0,0-8.56,6.08,6.31,6.31,0,0,0-.79,3.33,3.43,3.43,0,0,0,1.74,2.82c1.54.76,3.36,0,4.84-.91a16.06,16.06,0,0,0,3.6-2.66,6.84,6.84,0,0,0,2-3.92,4.42,4.42,0,0,0-1.59-4,3.28,3.28,0,0,0-4.12.17"/><path class="cls-23" d="M519.53,290.27c-1.95.72-1.14.48-2,2.13a5.85,5.85,0,0,0-.21,5.35,6.58,6.58,0,0,0,3.76,2.81c1.81.64,4,.85,5.5-.31A4.91,4.91,0,0,0,528,295a6.88,6.88,0,0,0-8.81-4.58"/><path class="cls-23" d="M511.69,314.39c.15,1.45.13.86,1.11,1.72a4.1,4.1,0,0,0,3.61,1.06,4.71,4.71,0,0,0,2.56-2.08,4.2,4.2,0,0,0,.73-3.8,3.46,3.46,0,0,0-3.37-1.85,4.87,4.87,0,0,0-3.42,1.62,4.93,4.93,0,0,0-1.21,3.6"/><path class="cls-23" d="M457,329.51c.15,1.45.13.86,1.11,1.72a4.09,4.09,0,0,0,3.61,1.06,4.67,4.67,0,0,0,2.56-2.08,4.2,4.2,0,0,0,.73-3.8,3.46,3.46,0,0,0-3.37-1.85,4.83,4.83,0,0,0-4.63,5.22"/><path class="cls-23" d="M498.6,311.29a1.68,1.68,0,0,0-1.62-.8,4.74,4.74,0,0,0-1.81.61l-.69,1.33a2.45,2.45,0,0,0,3.49.83,1.67,1.67,0,0,0,.63-2"/><path class="cls-23" d="M467.82,310.7a1.65,1.65,0,0,0-1.62-.8,5,5,0,0,0-1.81.6l-.69,1.33a2.44,2.44,0,0,0,3.49.83,1.64,1.64,0,0,0,.63-2"/><path class="cls-23" d="M527.38,336.15a1.69,1.69,0,0,0-1.63-.79,5,5,0,0,0-1.81.6l-.69,1.33a2.45,2.45,0,0,0,3.5.83,1.67,1.67,0,0,0,.63-2"/><path class="cls-23" d="M481.55,364.92a1.68,1.68,0,0,0-1.63-.8,4.91,4.91,0,0,0-1.8.6l-.7,1.33a2.45,2.45,0,0,0,3.5.83,1.66,1.66,0,0,0,.63-2"/><path class="cls-23" d="M505.29,325.71a10.09,10.09,0,0,0-6-3.28c-2.73.1-4.71,1.88-6.59,3.86a4.45,4.45,0,0,0-1.47,3.23,4.5,4.5,0,0,0,2.25,3.18,10.94,10.94,0,0,0,9,1.4,6.13,6.13,0,0,0,3.17-1.92c1.44-1.82,1.1-4.63-.34-6.47"/><path class="cls-23" d="M519.74,324.77a3.43,3.43,0,0,0-3.82-.88,2.64,2.64,0,0,0,0,3.07,2.4,2.4,0,0,0,3,.65,2.19,2.19,0,0,0,.86-2.84"/><path class="cls-23" d="M503.19,366c-.53-1-2.94-1.52-3.82-.87a2.64,2.64,0,0,0,0,3.07,2.41,2.41,0,0,0,2.95.64,2.19,2.19,0,0,0,.86-2.84"/><path class="cls-23" d="M540.71,306.55c-.53-1-2.94-1.52-3.82-.87a2.63,2.63,0,0,0,0,3.06,2.4,2.4,0,0,0,3,.65,2.2,2.2,0,0,0,.86-2.84"/><path class="cls-23" d="M484.47,340.78A3.35,3.35,0,0,0,482,340l0,0c-1.74,0-3.18.69-3.34,2.32a5.33,5.33,0,0,0,1.75,4.41,3.37,3.37,0,0,0,3.48.8,3.43,3.43,0,0,0,1.75-2.3,4.46,4.46,0,0,0-1.16-4.45"/><path class="cls-23" d="M525.68,357.81a4.46,4.46,0,0,0-2.3-2.89,3.94,3.94,0,0,0-3.68.55,7.47,7.47,0,0,0-2.33,3,9.09,9.09,0,0,0-.94,4.33,3.56,3.56,0,0,0,4.05,2.69h0a4.92,4.92,0,0,0,3.51-1.06,6.35,6.35,0,0,0,1.71-6.66"/><path class="cls-23" d="M478,312.58c-1.95.72-1.14.48-2,2.13a5.85,5.85,0,0,0-.21,5.35,6.61,6.61,0,0,0,3.76,2.81c1.81.64,4,.85,5.51-.31a4.92,4.92,0,0,0,1.38-5.29,6.88,6.88,0,0,0-8.81-4.58"/></g></g><path class="cls-31" d="M510.8,403.37s35.84,9.92,37.28,10.43c2.16.76,1.8,8.67-1.56,8.55-1.59-.06-27.54,1-30.82.76s-13.16-4.1-13.16-4.1Z"/><path class="cls-5" d="M525.73,417.05c.18,0,.42-1.87,1.58-3.85s2.65-3.15,2.53-3.3a8,8,0,0,0-4.11,7.15"/><path class="cls-5" d="M522,415.36c.18,0,.54-1.67,1.5-3.54s2.08-3.18,2-3.31a9,9,0,0,0-3.45,6.85"/><path class="cls-5" d="M518.49,414.42c.18,0,0-1.8.83-3.79a24,24,0,0,1,2-3.35c-.08-.14-1.68,1-2.51,3.13s-.43,4.06-.28,4"/><path class="cls-5" d="M519.12,409.79a6.37,6.37,0,0,0,.39-2.67,12.66,12.66,0,0,0-.37-2.92,13.35,13.35,0,0,0-.53-1.67,2.14,2.14,0,0,0-.57-.88,1,1,0,0,0-1.24.07,1.57,1.57,0,0,0-.47,1,6.18,6.18,0,0,0-.05.95,8.22,8.22,0,0,0,.22,1.75,10.84,10.84,0,0,0,1.1,2.74,7.27,7.27,0,0,0,1.61,2.16c.09-.06-.51-.89-1.23-2.35a12,12,0,0,1-.94-2.67,7.93,7.93,0,0,1-.17-1.64c0-.55,0-1.24.33-1.5a.35.35,0,0,1,.47,0,1.55,1.55,0,0,1,.4.62,13.57,13.57,0,0,1,.54,1.59,14.08,14.08,0,0,1,.47,2.8c.11,1.62-.06,2.63,0,2.65"/><path class="cls-5" d="M519.08,409.42a5.19,5.19,0,0,0-2.32-.37,10.3,10.3,0,0,0-2.54.31,5.94,5.94,0,0,0-1.46.54,1.51,1.51,0,0,0-.81,1.64,1.78,1.78,0,0,0,1.29,1.28,3.24,3.24,0,0,0,1.61,0,7.63,7.63,0,0,0,4-2.78,15.37,15.37,0,0,0-1.91,1.29,6.18,6.18,0,0,1-2.2.95,2.72,2.72,0,0,1-1.33,0,1.19,1.19,0,0,1-.87-.85.93.93,0,0,1,.53-1,5.86,5.86,0,0,1,1.3-.51,13,13,0,0,1,2.42-.42c1.4-.09,2.28,0,2.3-.05"/><path class="cls-5" d="M531.24,417.44a18.54,18.54,0,0,1,.7-3.24,19.12,19.12,0,0,1,1.76-2.8c-.06-.15-1.56.7-2.31,2.58s-.3,3.52-.15,3.46"/><path class="cls-5" d="M506.22,419.09a7.44,7.44,0,0,0,1.39.65,30.12,30.12,0,0,0,4,1.24,57.49,57.49,0,0,0,13.69,1.3c5.37-.06,10.21-.31,13.72-.45l4.15-.22a7.14,7.14,0,0,0,1.52-.16,7,7,0,0,0-1.52-.07l-4.16,0-13.72.27a65.17,65.17,0,0,1-13.59-1.11c-3.42-.71-5.42-1.59-5.47-1.48"/><path class="cls-5" d="M505.16,419.91c0,.08,1-.49,2.69-1.22a12.56,12.56,0,0,1,6.78-1.13,10.82,10.82,0,0,1,5.87,3.49,20.33,20.33,0,0,0,2.06,2.11,11.12,11.12,0,0,0-1.75-2.4,14.46,14.46,0,0,0-2.38-2.22,8.5,8.5,0,0,0-3.7-1.57,11.82,11.82,0,0,0-7.06,1.34,9.77,9.77,0,0,0-2.51,1.6"/><g class="cls-26"><g class="cls-32"><path class="cls-31" d="M510.8,403.37s35.84,9.92,37.28,10.43c2.16.76,1.8,8.67-1.56,8.55-1.59-.06-27.54,1-30.82.76s-13.16-4.1-13.16-4.1Z"/></g></g><path class="cls-5" d="M479,372.18,467.3,385.75s-38.85-11.81-48.64-11.27S400.85,379,398.94,386.9s-2.16,18.92,9.26,26.54,68.19,11.82,68.19,11.82h22.46l36.71-48.41-3.22-2.66Z"/><path class="cls-20" d="M486.79,403.58a4.17,4.17,0,0,1-.74,0c-.48,0-1.2,0-2.11-.16a44.32,44.32,0,0,1-7.61-1.58,71.59,71.59,0,0,1-10.74-4.2c-3.93-1.85-8.12-4.13-12.52-6.49a130.08,130.08,0,0,0-12.69-6.09,57.33,57.33,0,0,0-11-3.28,38.51,38.51,0,0,0-7.69-.67c-.92,0-1.62.08-2.11.08a4,4,0,0,1-.73,0,3.83,3.83,0,0,1,.72-.11c.49,0,1.19-.16,2.11-.17a35.77,35.77,0,0,1,7.76.52,55.55,55.55,0,0,1,11.08,3.2,124.09,124.09,0,0,1,12.75,6.08c4.4,2.36,8.58,4.65,12.48,6.52a75.85,75.85,0,0,0,10.65,4.27,47.45,47.45,0,0,0,7.54,1.72c.9.15,1.61.18,2.09.25a6.26,6.26,0,0,1,.73.11"/><path class="cls-5" d="M513.34,421.31c7.21-2.84,46.9-15.47,60.95-31.7C586,376.09,567.38,364,567.38,364s-13-.42-17.41,0-66.62,42.5-66.62,42.5,10.87,21.22,10.6,22Z"/><path class="cls-20" d="M532.88,374.24a.71.71,0,0,1-.17.13l-.52.36-2,1.32-7.54,4.81-25,15.69L484.08,405l.09-.27c2.89,6.94,5.35,12.87,7.11,17.11.85,2.07,1.52,3.72,2,4.91.22.54.39,1,.52,1.31a2.78,2.78,0,0,1,.15.46,2,2,0,0,1-.22-.43l-.58-1.29c-.51-1.17-1.22-2.81-2.12-4.86l-7.27-17-.08-.18.17-.1,13.54-8.49,25-15.57,7.62-4.67,2.09-1.25.55-.31c.12-.07.19-.1.19-.09"/><path class="cls-20" d="M478.05,393a6.86,6.86,0,0,1-1.85-.7,25.8,25.8,0,0,1-7.63-5.59,6.29,6.29,0,0,1-1.22-1.54c.11-.11,2.1,2.14,5.07,4.3s5.69,3.39,5.63,3.53"/><path class="cls-20" d="M495,372.89a15.54,15.54,0,0,1,.09,2.49c0,1.53.09,3.64.3,6s.53,4.41.78,5.92a15.37,15.37,0,0,1,.35,2.46,10.66,10.66,0,0,1-.69-2.39,46.18,46.18,0,0,1-1.08-12,11.32,11.32,0,0,1,.25-2.48"/><path class="cls-20" d="M500.51,375s.19,0,.49.07a2.19,2.19,0,0,1,1,.87,2.37,2.37,0,0,1,.3,2,2.18,2.18,0,0,1-2,1.41,2.12,2.12,0,0,1-2.13-1.24,2.21,2.21,0,0,1,.28-2,1.91,1.91,0,0,1,1.09-.81c.31-.08.49,0,.49,0a2.33,2.33,0,0,0-1.29,1,1.91,1.91,0,0,0-.15,1.65,1.69,1.69,0,0,0,1.69.93,1.76,1.76,0,0,0,1.61-1.08,2.09,2.09,0,0,0-.17-1.68,2.91,2.91,0,0,0-1.22-1.11"/><path class="cls-20" d="M485.1,373.27a2.13,2.13,0,0,1,.34.74,6.65,6.65,0,0,1,.33,2.2,7.91,7.91,0,0,1-.72,3.22,7.23,7.23,0,0,1-6.45,4.34,7.81,7.81,0,0,1-3.26-.55,6.49,6.49,0,0,1-1.91-1.13c-.4-.34-.58-.57-.56-.59a12.38,12.38,0,0,0,2.59,1.4,8,8,0,0,0,3.11.42,7,7,0,0,0,6.07-4.08,8.21,8.21,0,0,0,.79-3,12.15,12.15,0,0,0-.33-2.93"/><path class="cls-20" d="M522.13,380.67a2.66,2.66,0,0,1-1.47-.21,5.59,5.59,0,0,1-3.72-5.7,2.6,2.6,0,0,1,.4-1.43c.08,0-.07.56-.06,1.44a6.09,6.09,0,0,0,1,3.21,6.16,6.16,0,0,0,2.55,2.16c.8.36,1.35.45,1.34.53"/><path class="cls-33" d="M563.39,353.71s6.07-8.76,7.4-9.5,12.55-3,13.41-2.6,13.41,4.59,11.7,5.89-10.44-1.72-10.44-1.72l-1.3.42s7.57,2.42,9.06,3.61.58,2.86-.82,2.5-7.94-2.7-8.38-2.48,7.05,2.93,7.81,3.55c1,.83.83,2.84-.57,2.53-.82-.18-7.83-3.18-7.83-3.18s5.44,3.11,5.9,3.7c.75,1-.14,2.11-1.35,1.65-.83-.32-4.62-2.89-5.73-3.32,0,0-1.12.12-2.43,2.15s-9.18,6.49-9.18,6.49Z"/><path class="cls-33" d="M566.32,354.29a2.61,2.61,0,0,0,3,.45c1-.42,1.84-1.16,2.81-1.64,2.9-1.45,6.6-.44,9.43-2,.4-.22.81-.62.68-1.05s-.62-.52-1-.57l-10.65-1.36"/><path class="cls-34" d="M570.54,348.1a4.39,4.39,0,0,1,1.17,0c.75.06,1.82.16,3.15.3l4.67.53,1.35.16a2.19,2.19,0,0,1,1.51.56.92.92,0,0,1,0,1,1.85,1.85,0,0,1-.64.61,7.08,7.08,0,0,1-1.45.61c-2.05.6-4,.46-5.74.74a7.82,7.82,0,0,0-2.33.66c-.68.32-1.27.76-1.86,1.1a3.8,3.8,0,0,1-3.14.6c-.77-.27-1-.74-.93-.73a3.2,3.2,0,0,0,1,.5,3.67,3.67,0,0,0,2.85-.74c.56-.35,1.14-.81,1.87-1.19a8.53,8.53,0,0,1,2.46-.76c1.77-.31,3.76-.21,5.65-.76a7.08,7.08,0,0,0,1.32-.56c.38-.22.61-.57.44-.74s-.64-.28-1.1-.34l-1.34-.18-4.65-.66c-1.32-.19-2.39-.36-3.13-.49a4.3,4.3,0,0,1-1.14-.27"/><path class="cls-34" d="M595.87,347.53a6.12,6.12,0,0,1-2.44.29,14.53,14.53,0,0,1-2.67-.29c-1-.26-2-.58-3.13-.91l-2.35-.71h.14a35.57,35.57,0,0,1-5.82.9,34.76,34.76,0,0,1,5.71-1.48h.07l.08,0,2.33.69,3.09.94a16.7,16.7,0,0,0,2.57.41,24,24,0,0,1,2.42.14"/><path class="cls-5" d="M540.82,257c-2.5-3-5.56-6.06-5.67-10,0-2.07.7-4.4-.54-6.06-1.08-1.45-3.23-1.68-4.45-3-1.62-1.78-.92-4.6-1.47-6.94a8.15,8.15,0,0,0-5.25-5.42,17,17,0,0,0-7.77-.59l-2.44,53.7c1.19-1.3,4.29-1.85,5.94-1.22s3.2,1.65,5,1.79c4,.33,6.73-3.62,10.11-5.7s7.65-2.61,9.43-6-.35-7.63-2.85-10.63"/><path class="cls-20" d="M533.43,274a4.18,4.18,0,0,0,1.32-.54,2.87,2.87,0,0,0,1-1.25,2.83,2.83,0,0,0,0-2.09,3.91,3.91,0,0,0-1.79-1.87,5,5,0,0,1-1.2-1,2.61,2.61,0,0,1-.5-1.66,12.17,12.17,0,0,1,1.08-3.37,4.64,4.64,0,0,0,.36-1.71,3.05,3.05,0,0,0-.51-1.66,10.23,10.23,0,0,0-2.66-2.46,14.27,14.27,0,0,1-2.69-2.29,11.19,11.19,0,0,1-2.57-5.34,10.48,10.48,0,0,1,0-4,6.5,6.5,0,0,1,.28-1c.08-.24.13-.36.15-.35s-.12.51-.24,1.43a11.44,11.44,0,0,0,.16,3.91,11.19,11.19,0,0,0,2.58,5.12,14.09,14.09,0,0,0,2.63,2.19,10.33,10.33,0,0,1,2.79,2.59,3.58,3.58,0,0,1,.59,1.92,5.31,5.31,0,0,1-.4,1.88,12,12,0,0,0-1.08,3.21,2,2,0,0,0,.4,1.39,4.37,4.37,0,0,0,1.08,1,8.45,8.45,0,0,1,1.15.9,3.14,3.14,0,0,1,.73,1.18,3,3,0,0,1-1.29,3.62,2.9,2.9,0,0,1-1,.38.92.92,0,0,1-.38,0"/><path class="cls-33" d="M513.85,286l-.17-9s9-1.32,11-12.93c1-5.78.9-15.28.55-23-.31-7-7.72-14.11-14.69-13.5l-22.66,3.9v3.76l.62,51.22a12.67,12.67,0,1,0,25.33-.39"/><path class="cls-5" d="M521.65,249a1.5,1.5,0,0,1-1.47,1.48,1.43,1.43,0,0,1-1.51-1.38,1.49,1.49,0,0,1,1.46-1.48,1.44,1.44,0,0,1,1.52,1.38"/><path class="cls-5" d="M523.1,245.86c-.19.19-1.31-.67-2.92-.69s-2.8.76-3,.56.11-.44.63-.8a4.09,4.09,0,0,1,2.39-.69,4,4,0,0,1,2.31.79c.49.39.65.75.56.83"/><path class="cls-5" d="M506.89,248.61a1.49,1.49,0,0,1-1.47,1.48,1.43,1.43,0,0,1-1.51-1.38,1.49,1.49,0,0,1,1.46-1.48,1.43,1.43,0,0,1,1.52,1.38"/><path class="cls-5" d="M507.29,245.88c-.19.19-1.31-.67-2.91-.69s-2.8.76-3,.56.11-.44.63-.8a4.06,4.06,0,0,1,2.38-.69,4,4,0,0,1,2.32.79c.48.39.64.74.55.83"/><path class="cls-5" d="M512.91,257.9a11.14,11.14,0,0,1,2.62-.42c.41,0,.8-.11.88-.39a2,2,0,0,0-.26-1.22c-.36-1-.75-2.05-1.15-3.15-1.61-4.48-2.77-8.16-2.58-8.22s1.63,3.52,3.23,8c.39,1.1.76,2.15,1.11,3.16a2.35,2.35,0,0,1,.18,1.61,1,1,0,0,1-.68.59,2.74,2.74,0,0,1-.7.09,10.31,10.31,0,0,1-2.65-.05"/><path class="cls-34" d="M513.69,276.94a29.6,29.6,0,0,1-15.53-4.44s3.9,8.14,15.58,7.26Z"/><path class="cls-34" d="M512.16,261.76a2.9,2.9,0,0,0-2.57-1.12,2.7,2.7,0,0,0-1.85.95,1.69,1.69,0,0,0-.16,1.91,1.94,1.94,0,0,0,2.1.57,6,6,0,0,0,2.08-1.19,1.68,1.68,0,0,0,.46-.46.55.55,0,0,0,0-.6"/><path class="cls-5" d="M508.16,258.93c.26,0,.24,1.74,1.71,3s3.33,1.11,3.34,1.35-.42.33-1.21.34a4.38,4.38,0,0,1-2.79-1,3.81,3.81,0,0,1-1.32-2.51c-.05-.73.15-1.16.27-1.15"/><path class="cls-5" d="M507.82,239.59c-.17.43-1.77.2-3.66.39s-3.42.68-3.67.29c-.1-.19.17-.6.79-1a6.43,6.43,0,0,1,5.58-.52c.69.29,1,.64,1,.85"/><path class="cls-5" d="M522.59,241.2c-.29.36-1.39,0-2.72-.08s-2.47.2-2.72-.19c-.11-.18.07-.55.57-.88a3.94,3.94,0,0,1,4.38.21c.47.38.61.76.49.94"/><path class="cls-20" d="M493.83,245.08c3.83-4.69,14.72-13.13,20-15.47.85-.37,1.64-1.16,2.16-1.16a17,17,0,0,1,3.13,2.11c2.82,2.48,5.07,8.3,6.16,11.89,1.57-4.47,1.06-10.91-2-14.49s-6.42-5.56-11.16-5.8a19.94,19.94,0,0,0-12.35,3.32c-1.6,1-7.37,5.78-9,8.55Z"/><path class="cls-5" d="M514.22,222.4c.78.09-4.5-4.25-7.8-4.84a13.21,13.21,0,0,0-9.59,2c-1.88,1.26-3.45,3-5.54,3.9a44.29,44.29,0,0,1-5,1.28,11.62,11.62,0,0,0-8.08,10c-.15,1.93.21,3.87.24,5.8A7.84,7.84,0,0,1,476.8,246c-1.14,1.23-2.81,1.8-4.23,2.7a10.47,10.47,0,0,0-4.65,10.3c.35,2.12,1.35,4.3.62,6.31-.48,1.33-1.63,2.29-2.41,3.47a7,7,0,0,0,.25,7.92c2,.21,3.53,1.69,5.06,2.95s3.5,2.43,5.4,1.87c2.47-.73,3.64-4,6.19-4.4s4.32,2.3,6.68,3.19c2.69,1,5.83-.51,7.46-2.89s2-5.36,2.08-8.24c.07-3.61-.39-7.43-2.53-10.34-1.54-2.09-4-3.88-4-6.47s2.23-4.45,2.61-6.9c.33-2.16-.82-4.22-1.72-6.2s-2.55-4.93-1.29-6.71c0,0,8.59-11.67,21.91-10.19"/><path class="cls-5" d="M515.27,224.35s.4.19.72.8a3,3,0,0,1-1.94,4.26c-.66.17-1.08,0-1.07,0s.4-.08,1-.31a3.13,3.13,0,0,0,1.66-1.53,3.19,3.19,0,0,0,.06-2.27c-.2-.57-.46-.87-.4-.93"/><path class="cls-5" d="M518.53,229.32c0,.13-.81,0-1.55-.6s-1.07-1.3-1-1.37.59.46,1.26,1,1.3.86,1.25,1"/><path class="cls-5" d="M510.84,226.27c0-.14.71-.11,1.49-.33s1.38-.56,1.47-.45-.43.68-1.34.92-1.66,0-1.62-.14"/><path class="cls-5" d="M510.92,224.14c0-.13.7-.14,1.52,0s1.46.34,1.44.47-.7.14-1.52,0-1.46-.33-1.44-.46"/><path class="cls-5" d="M518.8,224.86c0,.13-.26.26-.61.29s-.63-.06-.64-.2.26-.26.6-.29.64.07.65.2"/><path class="cls-5" d="M518.89,226.19c0,.14-.4.24-.9.24s-.89-.1-.89-.24.4-.24.89-.24.9.11.9.24"/><path class="cls-5" d="M498.37,234c.1.1-1.12,1.35-2.35,3.1s-2,3.31-2.14,3.25a12.72,12.72,0,0,1,4.49-6.35"/><path class="cls-5" d="M498.8,230.56c.11.09-1.31,1.85-2.76,4.21s-2.39,4.42-2.53,4.36a20.57,20.57,0,0,1,5.29-8.57"/><path class="cls-5" d="M467.39,247.16s-.1-.09-.28-.29a3.64,3.64,0,0,1-.53-1,4.76,4.76,0,0,1,.64-4.16,5.39,5.39,0,0,1,5.85-1.83,10.87,10.87,0,0,1,3.28,1.84,5.41,5.41,0,0,0,1.68.8,2,2,0,0,0,1.71-.36,2.85,2.85,0,0,0,1-1.55,5.05,5.05,0,0,0,.09-1.86c-.14-1.24-.44-2.49-.47-3.69A8.92,8.92,0,0,1,482,229a5.85,5.85,0,0,1,3.64-2.17,4,4,0,0,1,1.16,0,1.81,1.81,0,0,1,.4.1,8.31,8.31,0,0,0-1.53.09,5.77,5.77,0,0,0-3.4,2.2,8.59,8.59,0,0,0-1.47,5.82c0,1.17.34,2.35.5,3.66a4.14,4.14,0,0,1-1.24,3.85,2.53,2.53,0,0,1-2.12.44,5.7,5.7,0,0,1-1.84-.88,10.89,10.89,0,0,0-3.13-1.8,5.05,5.05,0,0,0-5.45,1.6,4.66,4.66,0,0,0-.74,3.9,6.2,6.2,0,0,0,.63,1.39"/><path class="cls-5" d="M539,248s-.14,0-.4,0a1.32,1.32,0,0,0-.92.55,1.22,1.22,0,0,0,0,1.56,1.85,1.85,0,0,0,2.06.44,2.71,2.71,0,0,0,1.44-2.22,7.32,7.32,0,0,0-.59-3.22,5.7,5.7,0,0,0-2-2.9,2.79,2.79,0,0,0-1.76-.37,11.2,11.2,0,0,0-2,.44,5.9,5.9,0,0,1-2.1.28,2.79,2.79,0,0,1-1.88-1,5,5,0,0,1-.87-3.74c.13-1.22.41-2.32.42-3.36a6.78,6.78,0,0,0-.56-2.81,7.6,7.6,0,0,0-2.62-3.23c-.83-.56-1.38-.74-1.36-.78s.14,0,.4.11a6.37,6.37,0,0,1,1.06.51,7.49,7.49,0,0,1,2.84,3.25,7.19,7.19,0,0,1,.65,2.95c0,1.1-.27,2.23-.39,3.4a4.6,4.6,0,0,0,.8,3.39,2.27,2.27,0,0,0,1.55.82,5.79,5.79,0,0,0,1.94-.27,11.39,11.39,0,0,1,2-.45,3.33,3.33,0,0,1,2,.44A6.13,6.13,0,0,1,541,245a7.7,7.7,0,0,1,.58,3.43,3.08,3.08,0,0,1-1.72,2.49,2.12,2.12,0,0,1-2.4-.59,1.36,1.36,0,0,1-.3-1,1.6,1.6,0,0,1,.37-.82,1.34,1.34,0,0,1,1.06-.52.69.69,0,0,1,.4.12"/><path class="cls-5" d="M462.45,263.35s.12.06.36.06a1,1,0,0,0,.84-.54,1,1,0,0,0,.13-.69,1,1,0,0,0-.52-.65,1.6,1.6,0,0,0-1.95.3,3.6,3.6,0,0,0-.93,2.44,2.6,2.6,0,0,0,.36,1.39,2.09,2.09,0,0,0,1.2.86,2.9,2.9,0,0,0,3-1,5.37,5.37,0,0,0,1.15-3.42,26.3,26.3,0,0,0-.36-3.79,10.13,10.13,0,0,1,.09-3.65,6.22,6.22,0,0,1,1.66-2.87,9.09,9.09,0,0,1,2.35-1.67,16.91,16.91,0,0,1,3.91-1.26,8.66,8.66,0,0,1,1.49-.24,9.38,9.38,0,0,1-1.44.42,19.49,19.49,0,0,0-3.81,1.39,9.1,9.1,0,0,0-2.21,1.64,5.84,5.84,0,0,0-1.51,2.7,9.64,9.64,0,0,0-.05,3.48,27.47,27.47,0,0,1,.37,3.86,5.85,5.85,0,0,1-1.28,3.72,3.31,3.31,0,0,1-3.47,1.08,2.51,2.51,0,0,1-1.44-1.06,2.92,2.92,0,0,1-.41-1.62,4,4,0,0,1,1.1-2.69,1.92,1.92,0,0,1,2.34-.28,1.27,1.27,0,0,1,.6.83,1.14,1.14,0,0,1-.2.84,1.13,1.13,0,0,1-1,.54.55.55,0,0,1-.36-.16"/><path class="cls-5" d="M494.9,218.93s-.06-.13-.16-.37a1.52,1.52,0,0,0-.78-.74,2.54,2.54,0,0,0-1.71-.1,1.86,1.86,0,0,0-1.43,1.54c-.31,1.66,1.62,3.76,3.91,3.35a6.34,6.34,0,0,0,3.19-1.54,18.63,18.63,0,0,0,2.6-2.94,17.68,17.68,0,0,1,2.69-3,6.66,6.66,0,0,1,3.46-1.59,5.17,5.17,0,0,1,3.33.87,7.05,7.05,0,0,1,2.08,2.15,11.33,11.33,0,0,1,1.41,4c.08.49.12.88.15,1.15s0,.4,0,.4-.12-.54-.34-1.52a11.86,11.86,0,0,0-1.51-3.88,6.84,6.84,0,0,0-2-2,4.79,4.79,0,0,0-3.07-.76,6.12,6.12,0,0,0-3.19,1.51,17.74,17.74,0,0,0-2.62,2.93,18.08,18.08,0,0,1-2.68,3,6.81,6.81,0,0,1-3.44,1.62,3.85,3.85,0,0,1-3.26-1.06,3.16,3.16,0,0,1-1-2.8,2.08,2.08,0,0,1,.64-1.2,2.32,2.32,0,0,1,1.07-.54,2.66,2.66,0,0,1,1.85.19,1.57,1.57,0,0,1,.79.87,1,1,0,0,1,.07.41"/><path class="cls-20" d="M509.25,222.13a.82.82,0,0,1-.08-.18,1.88,1.88,0,0,0-.24-.52,3.46,3.46,0,0,0-1.75-1.26,9.11,9.11,0,0,0-3.44-.49,8.25,8.25,0,0,0-2.14.33,6.79,6.79,0,0,0-2.09,1.21,16.34,16.34,0,0,0-3.69,4.19,9.7,9.7,0,0,0-.68,1.37,4,4,0,0,1-.86,1.44,6.74,6.74,0,0,1-2.94,1.77,14,14,0,0,1-1.73.35,7.57,7.57,0,0,0-1.64.56,6.74,6.74,0,0,0-2.69,2.26,5.81,5.81,0,0,0-1,3.47,24.89,24.89,0,0,0,.46,3.86,12.14,12.14,0,0,1,.18,4,5.71,5.71,0,0,1-1.87,3.41c-1.93,1.75-4.35,2.45-6,4a5.91,5.91,0,0,0-1.89,2.58,3.91,3.91,0,0,0,.25,2.93c.41.91,1,1.72,1.38,2.61a4.34,4.34,0,0,1,.42,2.77,3.76,3.76,0,0,1-1.54,2,16.61,16.61,0,0,0-1.75,1.32,3.76,3.76,0,0,0-1.07,3.14,12.54,12.54,0,0,0,.42,2.18,4.86,4.86,0,0,1,.2.76.6.6,0,0,1-.09-.18c-.05-.12-.11-.31-.2-.55a10.69,10.69,0,0,1-.52-2.19,4.9,4.9,0,0,1,.09-1.64,3.44,3.44,0,0,1,1-1.71,16.65,16.65,0,0,1,1.75-1.38,3.36,3.36,0,0,0,1.39-1.85,4,4,0,0,0-.42-2.53c-.38-.85-1-1.66-1.41-2.61a4.3,4.3,0,0,1-.29-3.22,6.47,6.47,0,0,1,2-2.79c1.78-1.58,4.2-2.3,6-4a5.19,5.19,0,0,0,1.71-3.14,11.85,11.85,0,0,0-.18-3.83,24.91,24.91,0,0,1-.46-3.94,6.29,6.29,0,0,1,1.07-3.74,7.13,7.13,0,0,1,2.89-2.41,7.52,7.52,0,0,1,1.75-.59,12.33,12.33,0,0,0,1.69-.33,6.41,6.41,0,0,0,2.76-1.63,3.61,3.61,0,0,0,.78-1.3,10.62,10.62,0,0,1,.72-1.43,16.77,16.77,0,0,1,3.83-4.26,7.23,7.23,0,0,1,2.21-1.23,8,8,0,0,1,2.22-.3,9.34,9.34,0,0,1,3.52.58,3.42,3.42,0,0,1,1.76,1.39,1.69,1.69,0,0,1,.21.55c0,.13,0,.2,0,.2"/><g class="cls-26"><g class="cls-35"><path class="cls-28" d="M471.36,361c-5.19-13.63-5.36-29.21-2.17-43.44-.77,7.6.41,15.13,2,22.6,1.48,7,3.27,7.08,2,14.86a17.44,17.44,0,0,1-.81,3.12Z"/></g></g><path class="cls-36" d="M485.52,409.35s-35.84,9.92-37.28,10.43c-2.16.76-1.8,8.67,1.56,8.55,1.59-.06,27.54,1,30.82.76s12.1-3.69,12.1-3.69Z"/><path class="cls-5" d="M470.59,423c-.18,0-.42-1.88-1.58-3.85s-2.65-3.16-2.53-3.3a8,8,0,0,1,4.11,7.15"/><path class="cls-5" d="M474.33,421.33c-.18,0-.54-1.66-1.49-3.54s-2.09-3.18-2-3.3a6.72,6.72,0,0,1,2.49,3,6.87,6.87,0,0,1,1,3.81"/><path class="cls-5" d="M477.83,420.39c-.18,0,0-1.8-.83-3.78a24.52,24.52,0,0,0-2-3.36,5.51,5.51,0,0,1,2.52,3.14c.85,2.15.42,4.05.27,4"/><path class="cls-5" d="M477.2,415.76a6.25,6.25,0,0,1-.39-2.66,12.82,12.82,0,0,1,.9-4.59,2.08,2.08,0,0,1,.57-.88,1,1,0,0,1,1.24.06,1.6,1.6,0,0,1,.47,1,6.18,6.18,0,0,1,.05.95,8.23,8.23,0,0,1-.22,1.76,11,11,0,0,1-1.1,2.74,7,7,0,0,1-1.62,2.15c-.08-.05.52-.89,1.24-2.35a11.83,11.83,0,0,0,.94-2.67,7.76,7.76,0,0,0,.17-1.63c0-.55,0-1.24-.33-1.51a.35.35,0,0,0-.47,0,1.59,1.59,0,0,0-.4.63,13.85,13.85,0,0,0-1,4.38c-.11,1.62.06,2.64,0,2.65"/><path class="cls-5" d="M477.24,415.4a4.91,4.91,0,0,1,2.31-.38,10.38,10.38,0,0,1,2.55.32,5.23,5.23,0,0,1,1.46.54,1.49,1.49,0,0,1,.81,1.63,1.76,1.76,0,0,1-1.29,1.28,3.25,3.25,0,0,1-1.61,0,6.07,6.07,0,0,1-2.32-1.15,6.17,6.17,0,0,1-1.67-1.64,18.12,18.12,0,0,1,1.91,1.3,6.36,6.36,0,0,0,2.2.95,2.85,2.85,0,0,0,1.33,0,1.22,1.22,0,0,0,.87-.85.93.93,0,0,0-.53-1,5.41,5.41,0,0,0-1.3-.51,12.19,12.19,0,0,0-2.42-.42c-1.4-.1-2.28,0-2.3-.05"/><path class="cls-5" d="M465.08,423.41c-.18,0,0-1.55-.7-3.23a19.57,19.57,0,0,0-1.76-2.81c.06-.15,1.56.7,2.31,2.58s.3,3.52.15,3.46"/><path class="cls-5" d="M490.1,425.07a9.49,9.49,0,0,1-1.39.65,30.36,30.36,0,0,1-4,1.23,56.47,56.47,0,0,1-13.69,1.3c-5.37-.06-10.21-.3-13.72-.44l-4.15-.22a6.65,6.65,0,0,1-1.52-.17,7.92,7.92,0,0,1,1.52-.07l4.16,0,13.72.27a63.83,63.83,0,0,0,13.59-1.11c3.42-.7,5.42-1.59,5.47-1.47"/><path class="cls-5" d="M491.16,425.88a29.32,29.32,0,0,1-2.69-1.21,12.37,12.37,0,0,0-6.78-1.13,10.76,10.76,0,0,0-5.87,3.49,21.71,21.71,0,0,1-2.06,2.11,10.85,10.85,0,0,1,1.75-2.4,14.44,14.44,0,0,1,2.38-2.22,8.39,8.39,0,0,1,3.7-1.57,11.83,11.83,0,0,1,7.06,1.33,9.77,9.77,0,0,1,2.51,1.6"/><path class="cls-5" d="M455.19,427.43c-.06,0,.25-.52.53-1.35a6.9,6.9,0,0,0,.26-3.37,6.79,6.79,0,0,0-1.45-3c-.56-.69-1-1-1-1.08s.56.19,1.23.84A6.12,6.12,0,0,1,456,426.2c-.39.86-.8,1.27-.85,1.23"/><path class="cls-20" d="M492.6,372.31h0a1.17,1.17,0,0,1,1.15-1.16l33.29-.42L540.19,330a3.25,3.25,0,0,1,3.18-2.25l50.53,1.42a3.25,3.25,0,0,1,3,4.39L581,375.65l-87.24-2.18a1.15,1.15,0,0,1-1.13-1.16"/><path class="cls-23" d="M567.28,350.54c-.6-1.09-3.1-1.46-4.3-.55a3.35,3.35,0,0,0-1.57,2,2.87,2.87,0,0,0,1.74,3.36,3.45,3.45,0,0,0,3.56-1.34,3.3,3.3,0,0,0,.57-3.48"/><path class="cls-5" d="M16.7,157.06s0-.15.08-.43.15-.73.26-1.27c.26-1.13.62-2.76,1.08-4.86,1-4.23,2.34-10.32,4-17.85,3.47-15.1,8.25-35.94,13.55-59L36,72.57l.24,1.05.29,1.31c5.27,23.41,10.05,44.61,13.5,60,1.71,7.67,3.09,13.87,4,18.19.46,2.13.83,3.8,1.08,4.95.11.55.2,1,.26,1.29s.08.44.08.44,0-.14-.12-.43-.19-.73-.32-1.28l-1.16-4.93c-1-4.31-2.43-10.5-4.19-18.15C46.15,119.62,41.33,98.44,36,75c-.1-.45-.21-.9-.3-1.31h.47c-5.35,23.07-10.18,43.91-13.69,59-1.76,7.51-3.19,13.59-4.19,17.82l-1.16,4.83c-.13.54-.24,1-.31,1.26s-.13.42-.13.42"/><path class="cls-20" d="M16.69,174.59V159.77H56.23v14.82A17.25,17.25,0,0,1,39,191.84H34a17.25,17.25,0,0,1-17.26-17.25"/><path class="cls-5" d="M16.69,159.77a4,4,0,0,1,.45.63l1.21,1.83c1,1.65,2.54,4,4.36,6.8,3.66,5.8,8.67,13.75,14.22,22.52l.1.17h-.42L50.4,169.07l4.23-6.83,1.17-1.84a5.31,5.31,0,0,1,.43-.63,4.31,4.31,0,0,1-.35.68l-1.09,1.89-4.09,6.91L37,192l-.21.34-.21-.34-.1-.16-14.1-22.6-4.22-6.88-1.13-1.88a6.68,6.68,0,0,1-.37-.68"/><path class="cls-5" d="M40.39,73.49a4.32,4.32,0,1,1-4.32-4.32,4.31,4.31,0,0,1,4.32,4.32"/><path class="cls-5" d="M36.07,0c.14,0,.24,16.63.24,37.15s-.1,37.15-.24,37.15-.24-16.63-.24-37.15S35.94,0,36.07,0"/><path class="cls-5" d="M38.31,193.46a1.85,1.85,0,1,1-1.85-1.85,1.84,1.84,0,0,1,1.85,1.85"/><path class="cls-5" d="M35.64,194.15l.3-.15a4.09,4.09,0,0,0-1.87,3.06,10.93,10.93,0,0,0,.32,3.68c.08.38.29.86.68.84s.52-.45.58-.8a7.8,7.8,0,0,0,.06-2.21,3.85,3.85,0,0,0,.85,2.61c.12.15.29.29.46.24s.25-.23.29-.4a8.72,8.72,0,0,0,.28-1.9,2.88,2.88,0,0,0,.59,1.54,1,1,0,0,0,1.47.1,1.43,1.43,0,0,0,.16-1.08,12.72,12.72,0,0,0-2.59-6.07"/><path class="cls-7" d="M19.18,159.77S1.42,139.3,3.39,138.56s17.77,10.6,17.77,10.6S7.59,118.82,10.3,116.6s17,26.89,17,26.89-2.22-42.43,0-42.93S37.68,143,37.68,143s12.09-39.23,15.55-39.23-3.7,37.75-3.7,37.75,14.31-24.18,16.53-21S55.94,149.9,55.94,149.9s18-15,18.75-13.07S55.2,159.77,55.2,159.77Z"/><path class="cls-23" d="M16.7,128.93c.13-.05,3.28,6.7,7,15.09s6.72,15.23,6.59,15.29-3.27-6.7-7-15.09S16.58,129,16.7,128.93"/><path class="cls-23" d="M31.05,132.71c.14,0,.66,5.94,1.17,13.29s.82,13.33.69,13.34-.66-6-1.17-13.3-.82-13.32-.69-13.33"/><path class="cls-23" d="M50.85,113.7a2.05,2.05,0,0,1-.11.48c-.1.37-.23.81-.39,1.35l-1.48,5c-1.26,4.17-2.94,10-4.66,16.37s-3.13,12.28-4.12,16.52c-.48,2.07-.88,3.77-1.18,5-.13.55-.24,1-.33,1.36a1.7,1.7,0,0,1-.15.47,1.65,1.65,0,0,1,0-.49c.07-.37.15-.83.25-1.38.22-1.2.57-2.93,1-5.06.91-4.27,2.28-10.14,4-16.57s3.46-12.2,4.8-16.36c.67-2.07,1.22-3.74,1.63-4.9l.48-1.32a1.6,1.6,0,0,1,.2-.45"/><path class="cls-23" d="M59.41,135.58c.11.07-3.36,5.24-7.75,11.54s-8,11.35-8.14,11.27,3.35-5.24,7.74-11.55,8-11.34,8.15-11.26"/><path class="cls-23" d="M25.18,159.34a6.36,6.36,0,0,1-1.56-1.11,46,46,0,0,1-3.38-3.12,43.23,43.23,0,0,1-3-3.46,6.55,6.55,0,0,1-1.07-1.58c.11-.09,2,2.15,4.45,4.7s4.68,4.46,4.59,4.57"/><path class="cls-23" d="M36,151.2a19.65,19.65,0,0,1,.63,4.23,19.17,19.17,0,0,1,.14,4.26,18.64,18.64,0,0,1-.63-4.22A18.58,18.58,0,0,1,36,151.2"/><path class="cls-23" d="M56.23,169a10.15,10.15,0,0,1-1.53.31c-1,.18-2.42.4-4.2.65a138.32,138.32,0,0,1-14,1.24,90.51,90.51,0,0,1-14-.58c-1.78-.24-3.22-.47-4.2-.68a10.42,10.42,0,0,1-1.52-.36,10.09,10.09,0,0,1,1.55.17c1,.16,2.43.34,4.21.52a102.35,102.35,0,0,0,14,.44c5.46-.19,10.39-.69,14-1.09l4.22-.49a8.09,8.09,0,0,1,1.55-.13"/><path class="cls-23" d="M56.23,173.42a10.15,10.15,0,0,1-1.53.31c-1,.18-2.42.4-4.2.65a138.32,138.32,0,0,1-14,1.24,88.07,88.07,0,0,1-14-.58c-1.78-.23-3.22-.47-4.2-.68a10.42,10.42,0,0,1-1.52-.36,10.09,10.09,0,0,1,1.55.17c1,.16,2.43.34,4.21.52a102.35,102.35,0,0,0,14,.44c5.46-.18,10.39-.69,14-1.09l4.22-.49a9.3,9.3,0,0,1,1.55-.13"/></g></g></svg>