<svg xmlns="http://www.w3.org/2000/svg" xmlns:xlink="http://www.w3.org/1999/xlink" viewBox="0 0 467.63 632.07"><defs><style>.cls-1{fill:none;}.cls-2{isolation:isolate;}.cls-3{fill:#363b54;}.cls-4{clip-path:url(#clip-path);}.cls-5{fill:url(#linear-gradient);}.cls-6{clip-path:url(#clip-path-2);}.cls-7{fill:url(#linear-gradient-2);}.cls-8{clip-path:url(#clip-path-3);}.cls-9{fill:url(#linear-gradient-3);}.cls-10{mix-blend-mode:screen;}.cls-11{clip-path:url(#clip-path-4);}.cls-12{clip-path:url(#clip-path-5);}.cls-13{fill:url(#linear-gradient-4);}.cls-14{clip-path:url(#clip-path-6);}.cls-15{clip-path:url(#clip-path-7);}.cls-16{fill:url(#linear-gradient-5);}.cls-17{clip-path:url(#clip-path-8);}.cls-18{fill:url(#linear-gradient-6);}.cls-19{clip-path:url(#clip-path-9);}.cls-20{fill:url(#linear-gradient-7);}.cls-21{clip-path:url(#clip-path-10);}.cls-22{fill:url(#linear-gradient-8);}.cls-23{fill:#29abe2;}.cls-24{fill:#e8505b;}.cls-25{opacity:0.2;}.cls-26{clip-path:url(#clip-path-11);}.cls-27,.cls-35{fill:#fff;}.cls-28{clip-path:url(#clip-path-12);}.cls-29{fill:#e0e0e0;}.cls-30{fill:#ebebeb;}.cls-31{fill:#263238;}.cls-32{fill:#f5f5f5;}.cls-33{fill:#c2d2f0;}.cls-34{font-size:13.47px;}.cls-34,.cls-35{font-family:Mont-Bold, Mont;font-weight:700;}.cls-35{font-size:16.84px;}.cls-36{letter-spacing:-0.02em;}.cls-37{letter-spacing:0em;}.cls-38{letter-spacing:-0.01em;}</style><clipPath id="clip-path"><rect class="cls-1" x="65.42" y="106.95" width="10.74" height="111.34" rx="2.81"/></clipPath><linearGradient id="linear-gradient" x1="-208.22" y1="2008.65" x2="-207.22" y2="2008.65" gradientTransform="translate(-223575.58 -22965.48) rotate(-90) scale(111.34)" gradientUnits="userSpaceOnUse"><stop offset="0" stop-color="#9d9d9c"/><stop offset="0" stop-color="#9b9b9a"/><stop offset="0.04" stop-color="#727271"/><stop offset="0.08" stop-color="#4f4f4f"/><stop offset="0.12" stop-color="#323232"/><stop offset="0.16" stop-color="#1c1c1c"/><stop offset="0.21" stop-color="#0c0c0c"/><stop offset="0.27" stop-color="#030303"/><stop offset="0.34"/><stop offset="0.7"/><stop offset="0.74" stop-color="#050505"/><stop offset="0.79" stop-color="#131313"/><stop offset="0.84" stop-color="#2a2a2a"/><stop offset="0.9" stop-color="#4b4b4a"/><stop offset="0.95" stop-color="#747474"/><stop offset="1" stop-color="#9d9d9c"/></linearGradient><clipPath id="clip-path-2"><rect class="cls-1" x="65.42" y="231.11" width="10.74" height="45.66" rx="2.81"/></clipPath><linearGradient id="linear-gradient-2" x1="-208.22" y1="2008.65" x2="-207.22" y2="2008.65" gradientTransform="translate(-91643.89 -9230.62) rotate(-90) scale(45.66)" xlink:href="#linear-gradient"/><clipPath id="clip-path-3"><rect class="cls-1" x="68.41" width="312.05" height="632.07" rx="43.58"/></clipPath><linearGradient id="linear-gradient-3" x1="-208.22" y1="2008.65" x2="-207.22" y2="2008.65" gradientTransform="translate(-67418.57 654424.56) rotate(180) scale(325.65)" gradientUnits="userSpaceOnUse"><stop offset="0" stop-color="#575756"/><stop offset="0.01" stop-color="#4f4f4e"/><stop offset="0.03" stop-color="#323232"/><stop offset="0.05" stop-color="#1c1c1c"/><stop offset="0.08" stop-color="#0c0c0c"/><stop offset="0.11" stop-color="#030303"/><stop offset="0.15"/><stop offset="0.87"/><stop offset="0.9" stop-color="#050505"/><stop offset="0.93" stop-color="#131313"/><stop offset="0.96" stop-color="#2a2a2a"/><stop offset="0.99" stop-color="#4b4b4a"/><stop offset="1" stop-color="#575756"/></linearGradient><clipPath id="clip-path-4"><rect class="cls-1" x="72.07" y="3.3" width="304.72" height="49.81"/></clipPath><clipPath id="clip-path-5"><path class="cls-1" d="M115.66,3.3H333.21A43.59,43.59,0,0,1,376.8,46.88v6.23A43.6,43.6,0,0,0,333.21,9.52H115.66A43.59,43.59,0,0,0,72.07,53.11V46.88A43.58,43.58,0,0,1,115.66,3.3"/></clipPath><linearGradient id="linear-gradient-4" x1="-208.22" y1="2008.65" x2="-207.22" y2="2008.65" gradientTransform="translate(-44748.31 -4641.85) rotate(-90) scale(22.39)" gradientUnits="userSpaceOnUse"><stop offset="0"/><stop offset="0.14" stop-color="#050505"/><stop offset="0.3" stop-color="#131313"/><stop offset="0.48" stop-color="#2a2a2a"/><stop offset="0.66" stop-color="#4b4b4a"/><stop offset="0.84" stop-color="#747474"/><stop offset="1" stop-color="#9d9d9c"/></linearGradient><clipPath id="clip-path-6"><rect class="cls-1" x="72.07" y="578.78" width="304.72" height="49.81"/></clipPath><clipPath id="clip-path-7"><path class="cls-1" d="M333.21,628.59H115.66A43.58,43.58,0,0,1,72.07,585v-6.22a43.58,43.58,0,0,0,43.59,43.58H333.21a43.59,43.59,0,0,0,43.59-43.58V585a43.59,43.59,0,0,1-43.59,43.59"/></clipPath><linearGradient id="linear-gradient-5" x1="-208.22" y1="2008.65" x2="-207.22" y2="2008.65" gradientTransform="translate(45197.18 5273.73) rotate(90) scale(22.39)" xlink:href="#linear-gradient-4"/><clipPath id="clip-path-8"><path class="cls-1" d="M189,19.78a2,2,0,0,0,0,3.94h71a2,2,0,1,0,0-3.94Z"/></clipPath><linearGradient id="linear-gradient-6" x1="-208.22" y1="2008.65" x2="-207.22" y2="2008.65" gradientTransform="matrix(0, 34.44, 34.44, 0, -68959.2, 7170.73)" gradientUnits="userSpaceOnUse"><stop offset="0"/><stop offset="0.13" stop-color="#050505"/><stop offset="0.28" stop-color="#131313"/><stop offset="0.43" stop-color="#2a2a2a"/><stop offset="0.6" stop-color="#4b4b4b"/><stop offset="0.77" stop-color="#757474"/><stop offset="0.95" stop-color="#a8a7a7"/><stop offset="1" stop-color="#b9b8b8"/></linearGradient><clipPath id="clip-path-9"><path class="cls-1" d="M170.56,21.66a3.6,3.6,0,1,0,3.59-3.59,3.59,3.59,0,0,0-3.59,3.59"/></clipPath><linearGradient id="linear-gradient-7" x1="-208.22" y1="2008.65" x2="-207.22" y2="2008.65" gradientTransform="matrix(0, 18.91, 18.91, 0, -37816.72, 3948.42)" xlink:href="#linear-gradient-6"/><clipPath id="clip-path-10"><path class="cls-1" d="M270.57,21.66a3.59,3.59,0,1,0,3.59-3.59,3.59,3.59,0,0,0-3.59,3.59"/></clipPath><linearGradient id="linear-gradient-8" x1="-208.22" y1="2008.65" x2="-207.22" y2="2008.65" gradientTransform="matrix(0, 18.91, 18.91, 0, -37716.72, 3948.42)" xlink:href="#linear-gradient-6"/><clipPath id="clip-path-11"><rect class="cls-1" x="287.92" y="85.73" width="12.12" height="19.57"/></clipPath><clipPath id="clip-path-12"><rect class="cls-1" x="299.54" y="104.33" width="9.38" height="15.15"/></clipPath></defs><title>Asset 2</title><g class="cls-2"><g id="Layer_2" data-name="Layer 2"><g id="Layer_1-2" data-name="Layer 1"><path class="cls-3" d="M451.26,296.23c0,124.61-101,225.63-225.63,225.63S0,420.84,0,296.23,101,70.6,225.63,70.6s225.63,101,225.63,225.63"/><g class="cls-4"><rect class="cls-5" x="65.42" y="106.95" width="10.74" height="111.34"/></g><g class="cls-6"><rect class="cls-7" x="65.42" y="231.11" width="10.74" height="45.66"/></g><g class="cls-8"><rect class="cls-9" x="68.41" width="312.05" height="632.07"/></g><g class="cls-10"><g class="cls-11"><g class="cls-12"><rect class="cls-13" x="72.07" y="3.3" width="304.72" height="49.81"/></g></g></g><g class="cls-10"><g class="cls-14"><g class="cls-15"><rect class="cls-16" x="72.07" y="578.78" width="304.72" height="49.81"/></g></g></g><path class="cls-3" d="M372.47,47.25V584.82a33,33,0,0,1-33.09,32.94H109.49A33,33,0,0,1,76.4,584.82V47.25a32.82,32.82,0,0,1,27.53-32.37,24.42,24.42,0,0,1,5.56-.57h40.36a9.25,9.25,0,0,1,9.27,9.27A9.38,9.38,0,0,0,168.39,33H280.48a9.38,9.38,0,0,0,9.27-9.41A9.25,9.25,0,0,1,299,14.31h40.36a33,33,0,0,1,33.09,32.94"/><g class="cls-17"><rect class="cls-18" x="186.98" y="19.78" width="74.95" height="3.95"/></g><g class="cls-19"><rect class="cls-20" x="170.56" y="18.07" width="7.18" height="7.18"/></g><g class="cls-21"><rect class="cls-22" x="270.57" y="18.07" width="7.18" height="7.18"/></g><path class="cls-23" d="M423.63,52.7a22,22,0,1,0,22-22,22,22,0,0,0-22,22"/><path class="cls-24" d="M346.86,134.84H233.21a8.22,8.22,0,0,1-8.21-8.21V84.24A8.22,8.22,0,0,1,233.21,76H346.86a8.22,8.22,0,0,1,8.21,8.21v42.39a8.22,8.22,0,0,1-8.21,8.21"/><g class="cls-25"><g class="cls-26"><path class="cls-27" d="M295.19,103v2.33H293.1V103a9.84,9.84,0,0,1-5.18-1.66l1.14-2.54a8.46,8.46,0,0,0,4,1.48V96.83c-2.31-.56-4.89-1.34-4.89-4.31,0-2.21,1.6-4.11,4.89-4.48V85.73h2.09V88a9.3,9.3,0,0,1,4.22,1.27l-1,2.56a8.46,8.46,0,0,0-3.18-1.08v3.54c2.31.54,4.85,1.31,4.85,4.25,0,2.16-1.59,4-4.85,4.43m-2.09-9.2v-3c-1.1.25-1.54.85-1.54,1.54s.63,1.12,1.54,1.42m3.58,5c0-.73-.6-1.13-1.49-1.44v2.87c1-.23,1.49-.77,1.49-1.43"/></g></g><g class="cls-25"><g class="cls-28"><path class="cls-27" d="M305.17,117.68v1.8h-1.62v-1.76a7.54,7.54,0,0,1-4-1.29l.89-2a6.5,6.5,0,0,0,3.12,1.14v-2.69c-1.79-.44-3.79-1-3.79-3.34,0-1.71,1.25-3.17,3.79-3.46v-1.79h1.62v1.75a7.3,7.3,0,0,1,3.27,1l-.81,2a6.61,6.61,0,0,0-2.46-.84V111c1.79.42,3.75,1,3.75,3.29,0,1.68-1.22,3.13-3.75,3.44m-1.62-7.13v-2.29c-.85.19-1.19.66-1.19,1.19s.48.87,1.19,1.1m2.78,3.89c0-.57-.47-.88-1.16-1.12v2.23c.8-.18,1.16-.6,1.16-1.11"/></g></g><path class="cls-27" d="M317.51,100.82s0,.12,0,.36,0,.63,0,1.06c0,1,0,2.3,0,4v13.91l-.05-.13a5.78,5.78,0,0,0,2.74,1.4,13.6,13.6,0,0,0,3.35.39,11.28,11.28,0,0,0,6.71-2l-.08.18v0c0-7.12,0-13.71,0-19.11v.07a2.75,2.75,0,0,0-1-1,6.24,6.24,0,0,0-1.33-.58,12.07,12.07,0,0,0-2.69-.47,17.11,17.11,0,0,0-4.41.25,7.2,7.2,0,0,0-2.61,1,3.37,3.37,0,0,0-.56.49c-.12.12-.17.19-.18.19s.14-.35.67-.77a6.77,6.77,0,0,1,2.63-1.17,16.37,16.37,0,0,1,4.48-.35,12.83,12.83,0,0,1,2.77.44,4.39,4.39,0,0,1,2.62,1.77v.08c0,5.4,0,12,.05,19.11v.13l-.08.06a11.57,11.57,0,0,1-7,2.11,13.66,13.66,0,0,1-3.46-.41,6.09,6.09,0,0,1-3-1.57l-.05,0v-.08c.08-5.69.14-10.51.18-14,0-1.66.07-3,.09-4,0-.42,0-.77,0-1a1.39,1.39,0,0,1,0-.35"/><path class="cls-27" d="M330.5,100.85a5.43,5.43,0,0,1-1.7,1.12,10.61,10.61,0,0,1-4.83,1,11.51,11.51,0,0,1-4.85-.84,5.31,5.31,0,0,1-1.73-1.08c0-.07.71.33,1.85.77a13.08,13.08,0,0,0,4.73.68,11.78,11.78,0,0,0,4.69-.8c1.14-.47,1.8-.89,1.84-.82"/><path class="cls-27" d="M330.5,105.62a5.33,5.33,0,0,1-1.7,1.13,10.88,10.88,0,0,1-4.83,1,11.65,11.65,0,0,1-4.85-.85,5.31,5.31,0,0,1-1.73-1.08c0-.07.71.33,1.85.77a13.06,13.06,0,0,0,4.73.69,12.14,12.14,0,0,0,4.69-.8c1.14-.48,1.8-.9,1.84-.83"/><path class="cls-27" d="M330.5,110.4a5.43,5.43,0,0,1-1.7,1.12,10.61,10.61,0,0,1-4.83,1,11.51,11.51,0,0,1-4.85-.84,5.31,5.31,0,0,1-1.73-1.08c0-.07.71.33,1.85.77A13.08,13.08,0,0,0,324,112a12,12,0,0,0,4.69-.8c1.14-.47,1.8-.89,1.84-.82"/><path class="cls-27" d="M330.5,115.17a5.33,5.33,0,0,1-1.7,1.13,10.88,10.88,0,0,1-4.83,1,11.65,11.65,0,0,1-4.85-.85,5.31,5.31,0,0,1-1.73-1.08c0-.07.71.33,1.85.77a13.06,13.06,0,0,0,4.73.69,12.14,12.14,0,0,0,4.69-.8c1.14-.48,1.8-.9,1.84-.83"/><path class="cls-27" d="M330.56,91a4,4,0,0,1,0,.56c0,.4,0,.94,0,1.61,0,1.45,0,3.49,0,6,0,5.19,0,12.44,0,20.89l0-.14a5.75,5.75,0,0,0,2.79,1.42,13.8,13.8,0,0,0,3.36.38,11.16,11.16,0,0,0,6.63-2l-.08.18v0c0-11.16.05-21.32.06-28.9l0,.06a2.84,2.84,0,0,0-1.07-1,6.47,6.47,0,0,0-1.36-.58,12.21,12.21,0,0,0-2.71-.46,17,17,0,0,0-4.41.27,7.11,7.11,0,0,0-2.57,1.06,4.18,4.18,0,0,0-.54.48c-.11.12-.16.19-.17.19s0-.09.13-.22a3.1,3.1,0,0,1,.52-.53,6.84,6.84,0,0,1,2.59-1.17,16.59,16.59,0,0,1,4.47-.36,12.33,12.33,0,0,1,2.78.44A4.32,4.32,0,0,1,343.71,91V91c0,7.58,0,17.74.06,28.9v.13l-.08.06a11.59,11.59,0,0,1-6.94,2.12,13.92,13.92,0,0,1-3.48-.4,6.15,6.15,0,0,1-3-1.59l-.05,0v-.08c.07-8.47.14-15.74.18-20.93,0-2.55.07-4.58.09-6,0-.67,0-1.2,0-1.6a4.16,4.16,0,0,1,0-.54"/><path class="cls-27" d="M343.55,100.85a5.78,5.78,0,0,1-1.7,1.12,10.64,10.64,0,0,1-4.83,1,11.51,11.51,0,0,1-4.85-.84,5.61,5.61,0,0,1-1.74-1.08c0-.07.71.33,1.86.77a13,13,0,0,0,4.73.68,11.81,11.81,0,0,0,4.69-.8c1.14-.47,1.8-.89,1.84-.82"/><path class="cls-27" d="M343.55,105.62a5.67,5.67,0,0,1-1.7,1.13,10.91,10.91,0,0,1-4.83,1,11.65,11.65,0,0,1-4.85-.85,5.61,5.61,0,0,1-1.74-1.08c0-.07.71.33,1.86.77a13,13,0,0,0,4.73.69,12.18,12.18,0,0,0,4.69-.8c1.14-.48,1.8-.9,1.84-.83"/><path class="cls-27" d="M343.55,96a5.45,5.45,0,0,1-1.7,1.13,10.77,10.77,0,0,1-4.83,1,11.5,11.5,0,0,1-4.85-.85,5.5,5.5,0,0,1-1.74-1.07c0-.07.71.33,1.86.77a13,13,0,0,0,4.73.68,12,12,0,0,0,4.69-.8c1.14-.48,1.8-.89,1.84-.83"/><path class="cls-27" d="M343.55,91a5.78,5.78,0,0,1-1.7,1.12,10.77,10.77,0,0,1-4.83,1,11.5,11.5,0,0,1-4.85-.85,5.5,5.5,0,0,1-1.74-1.07c0-.07.71.33,1.86.77a13,13,0,0,0,4.73.68,12,12,0,0,0,4.69-.8,19.6,19.6,0,0,1,1.84-.82"/><path class="cls-27" d="M343.55,110.4a5.78,5.78,0,0,1-1.7,1.12,10.64,10.64,0,0,1-4.83,1,11.51,11.51,0,0,1-4.85-.84,5.61,5.61,0,0,1-1.74-1.08c0-.07.71.33,1.86.77A13,13,0,0,0,337,112a12,12,0,0,0,4.69-.8c1.14-.47,1.8-.89,1.84-.82"/><path class="cls-27" d="M343.55,115.17a5.67,5.67,0,0,1-1.7,1.13,10.91,10.91,0,0,1-4.83,1,11.65,11.65,0,0,1-4.85-.85,5.61,5.61,0,0,1-1.74-1.08c0-.07.71.33,1.86.77a13,13,0,0,0,4.73.69,12.18,12.18,0,0,0,4.69-.8c1.14-.48,1.8-.9,1.84-.83"/><path class="cls-29" d="M211.24,134.84H97.6a8.22,8.22,0,0,1-8.22-8.22V84.25A8.22,8.22,0,0,1,97.6,76H211.24a8.22,8.22,0,0,1,8.21,8.22v42.37a8.22,8.22,0,0,1-8.21,8.22"/><path class="cls-30" d="M150,102.93v2.33h-2.08V103a9.84,9.84,0,0,1-5.18-1.67l1.14-2.54a8.46,8.46,0,0,0,4,1.48V96.78c-2.31-.56-4.89-1.33-4.89-4.31,0-2.21,1.6-4.1,4.89-4.48V85.68H150V88a9.43,9.43,0,0,1,4.23,1.27l-1,2.56A8.69,8.69,0,0,0,150,90.7v3.54c2.31.54,4.86,1.31,4.86,4.25,0,2.17-1.59,4-4.86,4.44m-2.08-9.21v-3c-1.1.25-1.54.86-1.54,1.55s.62,1.12,1.54,1.41m3.58,5c0-.73-.6-1.13-1.5-1.44v2.88c1-.23,1.5-.77,1.5-1.44"/><path class="cls-30" d="M160,117.63v1.81h-1.61v-1.76a7.68,7.68,0,0,1-4-1.29l.88-2a6.59,6.59,0,0,0,3.13,1.15v-2.69c-1.79-.44-3.79-1-3.79-3.34,0-1.71,1.24-3.18,3.79-3.47v-1.79H160V106a7.43,7.43,0,0,1,3.28,1l-.81,2a6.42,6.42,0,0,0-2.47-.84v2.74c1.79.42,3.76,1,3.76,3.29,0,1.67-1.22,3.13-3.76,3.43m-1.61-7.13v-2.28c-.85.19-1.19.66-1.19,1.19s.48.87,1.19,1.09m2.78,3.89c0-.56-.47-.87-1.17-1.11v2.22c.81-.17,1.17-.59,1.17-1.11"/><polygon class="cls-31" points="101.01 96.82 99.52 96.82 99.52 96.43 102.96 96.43 102.96 96.82 101.47 96.82 101.47 100.69 101.01 100.69 101.01 96.82"/><path class="cls-31" d="M102.93,99.09a1.63,1.63,0,1,1,1.63,1.63,1.57,1.57,0,0,1-1.63-1.63m2.82,0a1.19,1.19,0,1,0-1.19,1.25,1.16,1.16,0,0,0,1.19-1.25"/><path class="cls-31" d="M108.75,100.5a1,1,0,0,1-.67.22.85.85,0,0,1-.94-.93V97.86h-.57v-.37h.57v-.7h.43v.7h1v.37h-1v1.91a.51.51,0,0,0,.56.58.71.71,0,0,0,.47-.16Z"/><path class="cls-31" d="M112,98.71v2h-.42v-.5a1.19,1.19,0,0,1-1.1.53c-.72,0-1.17-.37-1.17-.93s.32-.9,1.24-.9h1v-.2c0-.55-.31-.84-.9-.84a1.63,1.63,0,0,0-1.07.37l-.19-.32a2,2,0,0,1,1.3-.43,1.14,1.14,0,0,1,1.3,1.24m-.44,1v-.52h-1c-.62,0-.82.24-.82.57s.3.6.81.6a1,1,0,0,0,1-.65"/><rect class="cls-31" x="113.13" y="96.18" width="0.43" height="4.52"/><path class="cls-31" d="M116.08,98.56a2.24,2.24,0,1,1,2.24,2.17,2.13,2.13,0,0,1-2.24-2.17m4,0a1.79,1.79,0,1,0-1.78,1.77,1.72,1.72,0,0,0,1.78-1.77"/><path class="cls-31" d="M123.08,97.47v.42H123a1,1,0,0,0-1.08,1.18v1.63h-.43v-3.2h.41v.63a1.2,1.2,0,0,1,1.2-.65"/><path class="cls-31" d="M126.75,96.18v4.51h-.41v-.63a1.4,1.4,0,0,1-1.24.66,1.63,1.63,0,0,1,0-3.25,1.41,1.41,0,0,1,1.22.63V96.18Zm-.43,2.91a1.19,1.19,0,1,0-2.38,0,1.19,1.19,0,1,0,2.38,0"/><path class="cls-31" d="M130.74,99.23h-2.68a1.18,1.18,0,0,0,1.26,1.11,1.26,1.26,0,0,0,1-.42l.25.28a1.7,1.7,0,0,1-2.92-1.11,1.54,1.54,0,0,1,1.57-1.62,1.52,1.52,0,0,1,1.55,1.62s0,.09,0,.14m-2.68-.33h2.27a1.11,1.11,0,0,0-1.13-1.06,1.12,1.12,0,0,0-1.14,1.06"/><path class="cls-31" d="M133.24,97.47v.42h-.1a1,1,0,0,0-1.08,1.18v1.63h-.43v-3.2H132v.63a1.2,1.2,0,0,1,1.2-.65"/><polygon class="cls-31" points="105.33 106.1 105.33 119.33 102.27 119.33 102.27 108.56 99.62 108.56 99.62 106.1 105.33 106.1"/><path class="cls-31" d="M117.51,116.83v2.5h-10v-2l5.1-4.81c1.17-1.12,1.38-1.8,1.38-2.44,0-1-.72-1.65-2.12-1.65a3.25,3.25,0,0,0-2.74,1.33l-2.22-1.44a6.15,6.15,0,0,1,5.25-2.46c2.94,0,4.91,1.52,4.91,3.92,0,1.28-.36,2.45-2.21,4.17l-3,2.87Z"/><path class="cls-31" d="M118.74,112.71c0-4.36,2.42-6.83,5.67-6.83s5.66,2.47,5.66,6.83-2.4,6.84-5.66,6.84-5.67-2.47-5.67-6.84m8.25,0c0-3-1-4.25-2.58-4.25s-2.57,1.25-2.57,4.25,1,4.26,2.57,4.26,2.58-1.25,2.58-4.26"/><path class="cls-32" d="M205.87,118.88H174.11a3.17,3.17,0,0,1-3.18-3.17V97.59a3.17,3.17,0,0,1,3.18-3.17h31.76A3.17,3.17,0,0,1,209,97.59v18.12a3.17,3.17,0,0,1-3.17,3.17"/><rect class="cls-29" x="175.26" y="98.92" width="6.21" height="2.26"/><path class="cls-29" d="M182.76,105.81a20.57,20.57,0,0,1-4.4.24,20.44,20.44,0,0,1-4.39-.24,20.86,20.86,0,0,1,4.39-.23,21,21,0,0,1,4.4.23"/><path class="cls-29" d="M188.78,105.81a10.2,10.2,0,0,1-4.4,0,10.64,10.64,0,0,1,4.4,0"/><path class="cls-29" d="M205.14,105.81a22.6,22.6,0,0,1-6.57,0,23.57,23.57,0,0,1,6.57,0"/><path class="cls-29" d="M197,105.81a21.12,21.12,0,0,1-6.35,0,22,22,0,0,1,6.35,0"/><path class="cls-29" d="M180.63,111.3a23.08,23.08,0,0,1-6.5,0,22.13,22.13,0,0,1,6.5,0"/><path class="cls-29" d="M186.14,113.63a38.92,38.92,0,0,1-6,.23,39,39,0,0,1-6-.23,39,39,0,0,1,6-.23,38.92,38.92,0,0,1,6,.23"/><path class="cls-29" d="M205.14,113.63a14.14,14.14,0,0,1-5.08,0,14.14,14.14,0,0,1,5.08,0"/><polygon class="cls-27" points="236.63 98.89 235.13 98.89 235.13 98.5 238.58 98.5 238.58 98.89 237.08 98.89 237.08 102.76 236.63 102.76 236.63 98.89"/><path class="cls-27" d="M238.55,101.16a1.63,1.63,0,1,1,1.63,1.63,1.58,1.58,0,0,1-1.63-1.63m2.81,0a1.19,1.19,0,1,0-1.18,1.25,1.16,1.16,0,0,0,1.18-1.25"/><path class="cls-27" d="M244.37,102.56a1,1,0,0,1-.68.23.84.84,0,0,1-.93-.93V99.92h-.58v-.36h.58v-.7h.43v.7h1v.36h-1v1.91c0,.38.19.59.55.59a.72.72,0,0,0,.48-.17Z"/><path class="cls-27" d="M247.57,100.78v2h-.41v-.5a1.21,1.21,0,0,1-1.1.53c-.73,0-1.17-.38-1.17-.93s.31-.91,1.23-.91h1v-.19c0-.55-.31-.85-.91-.85a1.63,1.63,0,0,0-1.06.38L245,100a2.06,2.06,0,0,1,1.31-.43,1.14,1.14,0,0,1,1.29,1.25m-.43,1v-.53h-1c-.62,0-.82.25-.82.58s.3.6.81.6a1,1,0,0,0,1-.65"/><rect class="cls-27" x="248.74" y="98.24" width="0.43" height="4.52"/><path class="cls-27" d="M255,102.76l-1-1.37-.34,0h-1.14v1.35h-.45V98.5h1.59c1.09,0,1.74.55,1.74,1.46a1.32,1.32,0,0,1-1,1.34l1,1.46Zm0-2.8c0-.68-.45-1.07-1.3-1.07h-1.13V101h1.13c.85,0,1.3-.39,1.3-1.06"/><path class="cls-27" d="M259.16,101.29h-2.67a1.18,1.18,0,0,0,1.26,1.12,1.27,1.27,0,0,0,1-.42l.24.28a1.7,1.7,0,0,1-2.92-1.11,1.55,1.55,0,0,1,1.57-1.63,1.53,1.53,0,0,1,1.55,1.63s0,.08,0,.13m-2.67-.32h2.27a1.14,1.14,0,0,0-2.27,0"/><polygon class="cls-27" points="262.68 99.56 261.26 102.76 260.81 102.76 259.39 99.56 259.85 99.56 261.05 102.28 262.26 99.56 262.68 99.56"/><path class="cls-27" d="M266,101.29h-2.68a1.19,1.19,0,0,0,1.26,1.12,1.27,1.27,0,0,0,1-.42l.24.28a1.56,1.56,0,0,1-1.23.52,1.58,1.58,0,0,1-1.68-1.63,1.56,1.56,0,1,1,3.11,0v.13m-2.68-.32h2.27a1.14,1.14,0,0,0-2.27,0"/><path class="cls-27" d="M269.82,100.9v1.86h-.43v-1.82a.9.9,0,0,0-1-1,1.05,1.05,0,0,0-1.12,1.16v1.68h-.44v-3.2h.42v.59a1.34,1.34,0,0,1,1.22-.62,1.23,1.23,0,0,1,1.31,1.37"/><path class="cls-27" d="M273.88,99.56v3.2h-.42v-.59a1.36,1.36,0,0,1-2.5-.76V99.56h.44v1.81c0,.68.35,1,1,1a1,1,0,0,0,1.09-1.16V99.56Z"/><path class="cls-27" d="M277.88,101.29H275.2a1.19,1.19,0,0,0,1.26,1.12,1.26,1.26,0,0,0,1-.42l.24.28a1.56,1.56,0,0,1-1.23.52,1.58,1.58,0,0,1-1.68-1.63,1.56,1.56,0,1,1,3.11,0v.13M275.2,101h2.27a1.14,1.14,0,0,0-2.27,0"/><path class="cls-27" d="M240.16,119.43v1.5h-1.34v-1.46a6.33,6.33,0,0,1-3.34-1.07l.74-1.63a5.42,5.42,0,0,0,2.6,1v-2.24c-1.49-.36-3.15-.86-3.15-2.77,0-1.42,1-2.64,3.15-2.88v-1.49h1.34v1.46a6.08,6.08,0,0,1,2.72.82l-.67,1.65a5.5,5.5,0,0,0-2.05-.7v2.28c1.48.35,3.12.84,3.12,2.73,0,1.39-1,2.6-3.12,2.85m-1.34-5.92v-1.9c-.71.16-1,.55-1,1s.4.73,1,.91m2.3,3.23c0-.47-.39-.72-1-.92v1.85c.67-.15,1-.5,1-.93"/><polygon class="cls-27" points="247.65 109.95 247.65 119.33 245.48 119.33 245.48 111.69 243.61 111.69 243.61 109.95 247.65 109.95"/><path class="cls-27" d="M256.37,116.38c0,1.66-1.22,3.11-3.9,3.11a6.4,6.4,0,0,1-3.57-1l.85-1.66a4.5,4.5,0,0,0,2.67.85c1.08,0,1.75-.46,1.75-1.22s-.48-1.22-2.18-1.22h-2.4l.49-5.28h5.71v1.74h-3.91l-.14,1.78h.76c2.77,0,3.87,1.25,3.87,2.91"/><path class="cls-27" d="M259.78,118.12a3.08,3.08,0,0,1-.36,1.34l-.76,1.93h-1.33l.59-2.13a1.17,1.17,0,0,1-.72-1.14,1.29,1.29,0,1,1,2.58,0"/><path class="cls-27" d="M260.59,114.64c0-3.1,1.71-4.85,4-4.85s4,1.75,4,4.85-1.7,4.85-4,4.85-4-1.76-4-4.85m5.85,0c0-2.13-.75-3-1.84-3s-1.82.89-1.82,3,.75,3,1.82,3,1.84-.88,1.84-3"/><path class="cls-27" d="M269.67,114.64c0-3.1,1.72-4.85,4-4.85s4,1.75,4,4.85-1.7,4.85-4,4.85-4-1.76-4-4.85m5.86,0c0-2.13-.75-3-1.84-3s-1.82.89-1.82,3,.75,3,1.82,3,1.84-.88,1.84-3"/><path class="cls-27" d="M278.77,114.64c0-3.1,1.71-4.85,4-4.85s4,1.75,4,4.85-1.7,4.85-4,4.85-4-1.76-4-4.85m5.85,0c0-2.13-.75-3-1.84-3s-1.82.89-1.82,3,.75,3,1.82,3,1.84-.88,1.84-3"/><rect class="cls-30" x="156.5" y="272.61" width="9.92" height="39.39"/><rect class="cls-30" x="171.35" y="284.53" width="9.92" height="27.47"/><rect class="cls-30" x="142.25" y="284.53" width="9.92" height="27.47"/><rect class="cls-30" x="113.14" y="308.34" width="9.92" height="3.66"/><rect class="cls-30" x="127.89" y="302.83" width="9.92" height="9.17"/><rect class="cls-30" x="98.94" y="308.95" width="9.92" height="3.05"/><rect class="cls-30" x="84.04" y="308.95" width="9.92" height="3.05"/><rect class="cls-30" x="187" y="290.06" width="9.92" height="21.94"/><rect class="cls-30" x="202.65" y="296.08" width="9.92" height="15.91"/><rect class="cls-30" x="218.3" y="284.53" width="9.92" height="27.47"/><rect class="cls-30" x="233.95" y="267.37" width="9.92" height="44.62"/><rect class="cls-30" x="249.6" y="254.17" width="9.92" height="57.83"/><rect class="cls-30" x="265.25" y="272.61" width="9.92" height="39.39"/><rect class="cls-30" x="280.9" y="237.25" width="9.92" height="74.74"/><rect class="cls-30" x="296.55" y="272.61" width="9.92" height="39.39"/><rect class="cls-30" x="312.2" y="284.53" width="9.92" height="27.47"/><rect class="cls-30" x="327.85" y="289.69" width="9.92" height="22.31"/><rect class="cls-30" x="343.5" y="296.08" width="9.92" height="15.91"/><path class="cls-24" d="M92.19,312l1,0,2.86,0,11-.05h3.79a29.52,29.52,0,0,0,4.14-.21,21.67,21.67,0,0,0,8.78-3.13,17.23,17.23,0,0,0,3.91-3.42,22.86,22.86,0,0,0,2.71-4.84c1.54-3.51,3-7.33,4.39-11.35s2.87-8.26,4.41-12.66c.78-2.2,1.56-4.44,2.47-6.7A39.34,39.34,0,0,1,145,263a27.25,27.25,0,0,1,5.07-5.79,22.86,22.86,0,0,1,6.86-4,24.22,24.22,0,0,1,8.05-1.42,29.77,29.77,0,0,1,8.35,1,21.26,21.26,0,0,1,4,1.54,19.93,19.93,0,0,1,3.62,2.43,22.62,22.62,0,0,1,5.39,7,53,53,0,0,1,3.12,8.44c.91,2.87,1.82,5.78,2.83,8.67,2,5.77,4.36,11.63,7.9,16.86a23.06,23.06,0,0,0,6.61,6.7,12.53,12.53,0,0,0,4.38,1.74,13.3,13.3,0,0,0,2.36.24c.8-.05,1.62,0,2.41-.12a16.08,16.08,0,0,0,6.23-1.76,14.28,14.28,0,0,0,4.71-4.34,64.79,64.79,0,0,0,3.36-5.54,61.32,61.32,0,0,0,2.84-5.75c3.39-7.82,5.5-16,8.67-23.5a88.68,88.68,0,0,1,5-11,39,39,0,0,1,7.12-9.28,23.35,23.35,0,0,1,9.65-5.81A31.91,31.91,0,0,1,274.31,238a34.46,34.46,0,0,1,10.2,2,26.58,26.58,0,0,1,8.48,5.1c4.84,4.28,8.36,9.3,12.37,13.27a32.83,32.83,0,0,0,13.42,7.87,56.27,56.27,0,0,0,12.89,2.45h0l18.16.06,4.68,0,1.59,0s-.53,0-1.59,0l-4.68,0-18.16.06h0a55.81,55.81,0,0,1-13-2.41,33,33,0,0,1-13.58-7.9c-4.06-4-7.59-9-12.39-13.22a26.12,26.12,0,0,0-8.35-5,34,34,0,0,0-10.07-2,31.71,31.71,0,0,0-10.62,1.31,23.27,23.27,0,0,0-9.45,5.7,38.58,38.58,0,0,0-7,9.18,88,88,0,0,0-5,10.92c-3.15,7.5-5.25,15.64-8.66,23.52a58.92,58.92,0,0,1-2.87,5.8,62.09,62.09,0,0,1-3.39,5.59,14.72,14.72,0,0,1-4.88,4.5,16.49,16.49,0,0,1-6.44,1.82c-.81.12-1.64.08-2.46.13a14.45,14.45,0,0,1-2.46-.25,13.14,13.14,0,0,1-4.57-1.81,23.62,23.62,0,0,1-6.76-6.86c-3.59-5.3-5.92-11.19-8-17-1-2.91-1.92-5.82-2.82-8.7a53.26,53.26,0,0,0-3.09-8.35,22.08,22.08,0,0,0-5.25-6.82,19.29,19.29,0,0,0-3.53-2.37,22.23,22.23,0,0,0-3.92-1.52,29.35,29.35,0,0,0-8.2-1,23.52,23.52,0,0,0-7.9,1.38,24.06,24.06,0,0,0-11.72,9.6c-2.75,4.18-4.26,8.83-5.84,13.21l-4.45,12.65c-1.45,4-2.86,7.84-4.43,11.36a23.07,23.07,0,0,1-2.77,4.91,17.34,17.34,0,0,1-4,3.46,21.71,21.71,0,0,1-8.91,3.13,28.51,28.51,0,0,1-4.17.19H107l-11-.05-2.86,0c-.64,0-1,0-1,0"/><path class="cls-24" d="M188.31,220.54H132.54a1.58,1.58,0,0,0-1.59,1.58v19.19a1.59,1.59,0,0,0,1.59,1.58h28.23a1.58,1.58,0,0,1,1.17.52c.88,1,2.07,2.25,2.94,3.18a1.59,1.59,0,0,0,2.33,0l2.87-3.17a1.59,1.59,0,0,1,1.17-.52h17.06a1.58,1.58,0,0,0,1.58-1.58V222.12a1.58,1.58,0,0,0-1.58-1.58"/><path class="cls-24" d="M167.92,251.8a2.17,2.17,0,1,1-2.17-2.17,2.17,2.17,0,0,1,2.17,2.17"/><path class="cls-31" d="M165.75,254a2.2,2.2,0,1,1,2.2-2.2,2.21,2.21,0,0,1-2.2,2.2m0-4.35a2.15,2.15,0,1,0,2.15,2.15,2.16,2.16,0,0,0-2.15-2.15"/><path class="cls-27" d="M145.49,235.3v1.07h-1v-1a4.4,4.4,0,0,1-2.36-.76l.52-1.15a3.87,3.87,0,0,0,1.84.67V232.5c-1-.25-2.23-.6-2.23-2,0-1,.73-1.87,2.23-2v-1.06h1v1a4.37,4.37,0,0,1,1.93.58l-.48,1.17a3.86,3.86,0,0,0-1.45-.5v1.62c1,.24,2.21.59,2.21,1.93,0,1-.72,1.84-2.21,2m-1-4.19v-1.35c-.5.11-.7.39-.7.7s.28.52.7.65m1.63,2.29c0-.34-.27-.52-.68-.66v1.31c.47-.1.68-.35.68-.65"/><polygon class="cls-27" points="150.81 228.58 150.81 235.23 149.27 235.23 149.27 229.82 147.94 229.82 147.94 228.58 150.81 228.58"/><path class="cls-27" d="M157,233.14c0,1.18-.86,2.2-2.76,2.2a4.53,4.53,0,0,1-2.53-.71l.6-1.18a3.22,3.22,0,0,0,1.89.6c.77,0,1.25-.32,1.25-.86s-.34-.87-1.55-.87h-1.7l.34-3.74h4.06v1.24H153.8l-.1,1.26h.54c2,0,2.74.88,2.74,2.06"/><path class="cls-27" d="M159.4,234.37a2.13,2.13,0,0,1-.25.95l-.54,1.37h-.94l.41-1.51a.83.83,0,0,1-.51-.81.92.92,0,0,1,1.83,0"/><path class="cls-27" d="M160,231.91c0-2.2,1.22-3.44,2.85-3.44s2.85,1.24,2.85,3.44-1.21,3.43-2.85,3.43S160,234.1,160,231.91m4.15,0c0-1.51-.53-2.14-1.3-2.14s-1.29.63-1.29,2.14.53,2.13,1.29,2.13,1.3-.62,1.3-2.13"/><path class="cls-27" d="M166.42,231.91c0-2.2,1.21-3.44,2.85-3.44s2.84,1.24,2.84,3.44-1.2,3.43-2.84,3.43-2.85-1.24-2.85-3.43m4.15,0c0-1.51-.54-2.14-1.3-2.14s-1.3.63-1.3,2.14.54,2.13,1.3,2.13,1.3-.62,1.3-2.13"/><path class="cls-27" d="M172.86,231.91c0-2.2,1.22-3.44,2.85-3.44s2.85,1.24,2.85,3.44-1.21,3.43-2.85,3.43-2.85-1.24-2.85-3.43m4.15,0c0-1.51-.53-2.14-1.3-2.14s-1.29.63-1.29,2.14S175,234,175.71,234s1.3-.62,1.3-2.13"/><path class="cls-33" d="M346.14,415.44H96.93a12,12,0,0,1-12-12V369.12a12,12,0,0,1,12-12H346.14a12,12,0,0,1,12,12v34.32a12,12,0,0,1-12,12"/><text class="cls-34" transform="translate(93.73 391.9)">Cash</text><text class="cls-35" transform="translate(283.76 393.17)">$1<tspan class="cls-36" x="16.09" y="0">0,</tspan><tspan class="cls-37" x="30.86" y="0">000</tspan></text><path class="cls-33" d="M346.14,488.09H96.93a12,12,0,0,1-12-12V441.77a12,12,0,0,1,12-12H346.14a12,12,0,0,1,12,12v34.32a12,12,0,0,1-12,12"/><text class="cls-34" transform="translate(93.73 464.55)">C<tspan class="cls-38" x="10.39" y="0">r</tspan><tspan x="15.72" y="0">edit</tspan></text><text class="cls-35" transform="translate(283.76 465.82)">$1<tspan class="cls-36" x="16.09" y="0">0,</tspan><tspan class="cls-37" x="30.86" y="0">000</tspan></text></g></g></g></svg>