<svg xmlns="http://www.w3.org/2000/svg" viewBox="0 0 138.39 133"><defs><style>.cls-1{fill:#363b54;}.cls-2{fill:#c2d2f0;}</style></defs><title>Asset 4</title><g id="Layer_2" data-name="Layer 2"><g id="Layer_1-2" data-name="Layer 1"><path class="cls-1" d="M110.38,123.6a3.44,3.44,0,1,1-3.44-3.45,3.44,3.44,0,0,1,3.44,3.45"/><path class="cls-1" d="M30.24,131a2,2,0,1,1-2-2,2,2,0,0,1,2,2"/><path class="cls-1" d="M124.12,68.08A62.06,62.06,0,1,1,62.06,6a62.07,62.07,0,0,1,62.06,62.06"/><path class="cls-1" d="M11.63,5.28A5.28,5.28,0,1,1,6.35,0a5.27,5.27,0,0,1,5.28,5.28"/><path class="cls-1" d="M138.39,73a2,2,0,1,1-2-2,2,2,0,0,1,2,2"/><path class="cls-1" d="M117.38,10.84a2,2,0,1,1-2-2,2,2,0,0,1,2,2"/><path class="cls-2" d="M64.64,66h-6a1.33,1.33,0,0,0-1.17.7l-4.79,8.84a1.34,1.34,0,0,0,1.18,2h3.44L54.8,83.51A1.33,1.33,0,0,0,57,85L67.71,74.18a1.33,1.33,0,0,0-.94-2.27H63.19L65.75,68A1.34,1.34,0,0,0,64.64,66m-1.08,8.62-3.75,3.77.7-1.72a1.33,1.33,0,0,0-1.23-1.84h-3.2l3.35-6.17h2.73L59.6,72.51a1.33,1.33,0,0,0,1.11,2.06Z"/><path class="cls-2" d="M61.64,45V40.47a1.33,1.33,0,0,0-2.66,0V45a1.33,1.33,0,1,0,2.66,0"/><path class="cls-2" d="M86.13,49.83a1.34,1.34,0,0,0-1.89,0L81,53a1.34,1.34,0,0,0,1.89,1.89l3.2-3.2a1.34,1.34,0,0,0,0-1.89"/><path class="cls-2" d="M38.63,55.31A1.34,1.34,0,0,0,39.58,53l-3.2-3.2a1.34,1.34,0,0,0-1.89,1.89l3.2,3.2a1.33,1.33,0,0,0,.94.39"/><path class="cls-2" d="M80.76,65.74a1.33,1.33,0,0,0,2.4-1.16,25.5,25.5,0,0,0-8.83-10.1L77,47.56a1.33,1.33,0,0,0-2.28-1.31L70,52.19A25.4,25.4,0,0,0,37.46,64.58a1.33,1.33,0,1,0,2.39,1.16A22.74,22.74,0,0,1,68.28,54.37l-5,6.27a15.29,15.29,0,0,0-16,6.94A1.34,1.34,0,1,0,49.58,69a12.63,12.63,0,1,1-1.9,6.66A12.78,12.78,0,0,1,48,73a1.33,1.33,0,0,0-2.61-.54A15.11,15.11,0,0,0,45,75.65,15.3,15.3,0,1,0,70.5,64.25L73.33,57a22.68,22.68,0,0,1,7.43,8.71m-10-10.25.22.12-2.74,7A14.79,14.79,0,0,0,66,61.46Z"/><path class="cls-2" d="M101.18,55.63a1.34,1.34,0,1,0-2.4,1.18,42.21,42.21,0,0,1,4.34,17.51H79.55a1.33,1.33,0,0,0-1.33,1.33,17.91,17.91,0,1,1-35.82,0,1.33,1.33,0,0,0-1.34-1.33H17.49A42.84,42.84,0,0,1,96.32,52.45,1.33,1.33,0,1,0,98.56,51,45.5,45.5,0,0,0,14.81,75.65,1.33,1.33,0,0,0,16.14,77H39.77a20.58,20.58,0,0,0,41.08,0h23.63a1.33,1.33,0,0,0,1.33-1.33,45.13,45.13,0,0,0-4.63-20"/></g></g></svg>