<svg xmlns="http://www.w3.org/2000/svg" viewBox="0 0 124.12 133"><defs><style>.cls-1{fill:#363b54;}.cls-2{fill:#c2d2f0;}</style></defs><title>Asset 5 (2)</title><g id="Layer_2" data-name="Layer 2"><g id="Layer_1-2" data-name="Layer 1"><path class="cls-1" d="M110.38,123.6a3.44,3.44,0,1,1-3.44-3.45,3.44,3.44,0,0,1,3.44,3.45"/><path class="cls-1" d="M30.24,131a2,2,0,1,1-2-2,2,2,0,0,1,2,2"/><path class="cls-1" d="M124.12,68.08A62.06,62.06,0,1,1,62.06,6a62.07,62.07,0,0,1,62.06,62.06"/><path class="cls-1" d="M11.63,5.28A5.28,5.28,0,1,1,6.35,0a5.27,5.27,0,0,1,5.28,5.28"/><path class="cls-1" d="M117.38,10.84a2,2,0,1,1-2-2,2,2,0,0,1,2,2"/><path class="cls-2" d="M82.82,66.81a6.73,6.73,0,1,0,0,13.45h9.75A2.24,2.24,0,0,0,94.81,78V60.42a9,9,0,0,0-3.72-7.26L83.47,40.65a2.26,2.26,0,0,0-3.1-.74L74.75,43.4l-2.54-4.29a2.18,2.18,0,0,0-1.38-1,2.23,2.23,0,0,0-1.71.25L47.53,51.46H44.15a2.19,2.19,0,1,1,0-4.37H48.3a2.25,2.25,0,0,0,0-4.49H44.15a6.73,6.73,0,0,0-6.54,5.17,2.18,2.18,0,0,0-.18.89V86.43a9,9,0,0,0,9,9H85.84a9,9,0,0,0,8.51-6.13,2.24,2.24,0,0,0-4.25-1.41,4.48,4.48,0,0,1-4.26,3.06H46.39a4.49,4.49,0,0,1-4.48-4.48V55.56a6.63,6.63,0,0,0,2.24.38H85.84a4.49,4.49,0,0,1,4.49,4.48v6.39Zm-2.24,6.73a2.24,2.24,0,0,1,2.24-2.24h7.51v4.48H82.82a2.24,2.24,0,0,1-2.24-2.24m.24-28.63,4,6.55H79.51L77,47.26ZM69.51,43.34l2.38,4a2.59,2.59,0,0,0,.17.33,1.77,1.77,0,0,0,.16.22l2.08,3.53H56.16Z"/></g></g></svg>