<svg xmlns="http://www.w3.org/2000/svg" viewBox="0 0 138.39 133"><defs><style>.cls-1{fill:#363b54;}.cls-2{fill:#c2d2f0;}</style></defs><title>Asset 42</title><g id="Layer_2" data-name="Layer 2"><g id="Layer_1-2" data-name="Layer 1"><path class="cls-1" d="M30.24,131a2,2,0,1,1-2-2,2,2,0,0,1,2,2"/><path class="cls-1" d="M124.12,68.08A62.06,62.06,0,1,1,62.06,6a62.07,62.07,0,0,1,62.06,62.06"/><path class="cls-2" d="M92.84,87.82H91.17c-.46.65.84-1.15,1.11-1.66A35.71,35.71,0,0,0,62.06,31.44,35.41,35.41,0,0,0,40.6,38.61a1.07,1.07,0,1,0,1.29,1.7A33.2,33.2,0,0,1,61,33.6V65.19L34.28,48.28a34.73,34.73,0,0,1,4-4.88,1.07,1.07,0,1,0-1.51-1.51,35.43,35.43,0,0,0-10.32,22,36.07,36.07,0,0,0-.05,5.88,35.29,35.29,0,0,0,7.32,19.13,35.94,35.94,0,0,0,18.11,12.45v1a2.32,2.32,0,0,0,2.31,2.31H65.41a2.32,2.32,0,0,0,1.25-.37,2.29,2.29,0,0,0,1.24.37H79.12a2.32,2.32,0,0,0,1.25-.37,2.31,2.31,0,0,0,1.24.37H92.84a2.32,2.32,0,0,0,2.31-2.31V90.14a2.32,2.32,0,0,0-2.31-2.32m-34.24,0H54v-2.6a.18.18,0,0,1,.18-.18H65.41a.18.18,0,0,1,.18.18v2.6H63.16a1.07,1.07,0,0,0,0,2.14h2.43v2.78H54V90H58.6a1.07,1.07,0,0,0,0-2.14m9.12-2.6V85H79.3v2.78H67.72ZM79.3,82.9H67.72V80.12H79.3ZM67.72,90H79.3v2.78H67.72ZM79.3,78H67.72v-2.6a.18.18,0,0,1,.18-.18H79.12a.18.18,0,0,1,.18.18ZM54,94.88H65.59v2.78H54Zm13.71,0H79.3v2.78H67.72Zm13.72,0H93v2.78H81.44ZM93,90.14v2.6H81.44v-2.6a.18.18,0,0,1,.17-.18H92.84a.18.18,0,0,1,.17.18m-11.4-2.32h-.17V80.65L89.85,86c-.43.63-.87,1.24-1.34,1.84ZM28.55,69.26c0-.35,0-.69,0-1H52l-23,5a33.41,33.41,0,0,1-.49-3.91m.94,6,27.28-5.89L33.53,84.81a33.5,33.5,0,0,1-4-9.55m3.65-25.18,25.28,16H28.51c0-.62,0-1.25.11-1.87a33.41,33.41,0,0,1,4.52-14.13m1.57,36.51L62.08,68.4l4.23,2.68a1.1,1.1,0,0,0,.57.16,1.06,1.06,0,0,0,.57-2l-4.32-2.74V33.6A33.56,33.56,0,0,1,91,84.17l-9.55-6V75.38a2.32,2.32,0,0,0-2.31-2.32H67.9a2.32,2.32,0,0,0-2.31,2.32v7.53H54.19a2.32,2.32,0,0,0-2.31,2.32V99.15A33.55,33.55,0,0,1,34.71,86.59m30.7,16H54.19a.18.18,0,0,1-.18-.17V99.8H65.59v2.61a.18.18,0,0,1-.18.17m13.71,0H67.9a.18.18,0,0,1-.18-.17V99.8H79.3v2.61a.18.18,0,0,1-.18.17M93,102.41a.18.18,0,0,1-.17.17H81.61a.18.18,0,0,1-.17-.17V99.8H93Z"/><path class="cls-1" d="M11.63,5.28A5.28,5.28,0,1,1,6.35,0a5.27,5.27,0,0,1,5.28,5.28"/><path class="cls-1" d="M110.38,123.6a3.44,3.44,0,1,1-3.44-3.45,3.44,3.44,0,0,1,3.44,3.45"/><path class="cls-1" d="M138.39,73a2,2,0,1,1-2-2,2,2,0,0,1,2,2"/><path class="cls-1" d="M117.38,10.84a2,2,0,1,1-2-2,2,2,0,0,1,2,2"/></g></g></svg>